<svg width="32" height="32" viewBox="0 0 32 32" fill="none" xmlns="http://www.w3.org/2000/svg">
<circle cx="16" cy="16" r="16" fill="#00A5E4"/>
<path d="M15.5537 16.3447C16.5382 16.7276 17.0104 15.7186 17.0104 15.7186C14.9382 12.9645 15.8248 7.67472 15.9 7.26552C15.9856 6.82835 16.0486 6.08691 16.0486 6.08691C15.8748 6.17219 15.7221 6.29478 15.6011 6.44592C15.4802 6.59706 15.3942 6.77302 15.3491 6.96125C15.162 7.70794 14.9259 9.1576 15.1288 11.2822C15.1288 11.2822 14.7651 8.82185 15.0186 6.75316C14.7574 6.98083 14.549 7.26276 14.4079 7.57928C14.2669 7.89581 14.1966 8.23929 14.202 8.58578C14.202 9.57903 14.3052 10.9675 14.7756 11.9467C14.7756 11.9467 13.9851 10.6387 13.8732 8.05593C13.5584 8.5402 13.4338 9.12382 13.5235 9.69444C13.6564 10.5863 13.9292 11.8646 14.4783 12.8421C14.4783 12.8421 13.4815 11.1808 13.1073 9.49859V9.50733C12.8582 10.0989 12.8371 10.7617 13.0479 11.3679C13.2344 11.9391 13.4593 12.4971 13.7211 13.0379C13.2451 12.4578 12.8466 11.8182 12.5355 11.1354C12.3898 11.6685 12.44 12.2362 12.6771 12.7354C12.9879 13.4225 13.419 14.0484 13.9502 14.5838C13.2934 14.0258 12.6856 13.4127 12.1333 12.7511C12.089 13.0044 12.1052 13.2646 12.1805 13.5105C12.2559 13.7563 12.3883 13.9809 12.567 14.1658C13.3974 15.0465 14.3787 15.7714 15.4645 16.3062L15.5537 16.3447Z" fill="white"/>
<path d="M20.4829 15.6518C19.995 14.8701 19.1574 14.4172 18.1204 15.0485C17.0835 15.6797 16.8369 17.3218 15.2911 16.6065C13.7452 15.8913 11.3775 14.3053 9.64632 10.654C8.13896 7.47144 8.58138 6.90312 8.11273 6.83142C8.04803 6.83142 7.9606 6.88213 7.85742 7.00629C7.58752 7.33208 7.45239 7.74873 7.47971 8.17091C7.53042 9.1152 7.97633 11.093 10.3336 13.9416C10.3336 13.9416 8.6828 13.2578 6.90789 9.16066L6.87816 9.09421C6.85543 9.16591 6.83445 9.23935 6.81171 9.3128C6.73043 9.58064 6.74339 9.86824 6.84843 10.1277C7.24364 11.1052 8.42225 13.646 10.449 15.2933C10.449 15.2933 8.90838 15.0852 6.45848 10.7904C6.44799 10.8499 6.43749 10.9111 6.42875 10.9653C6.36799 11.3324 6.43595 11.7092 6.62111 12.032C7.26112 13.1634 8.63908 15.2496 10.6151 16.4037C10.6151 16.4037 8.99407 16.3215 6.26088 12.6545V12.8154C6.25607 13.2053 6.37889 13.586 6.61061 13.8996C7.33807 14.8998 8.84893 16.673 10.8074 17.3095C10.8074 17.3095 9.70403 17.8114 6.37279 14.5221C6.37279 14.5903 6.39203 14.6568 6.40252 14.7232C6.52668 15.5731 7.29959 16.4964 9.79671 17.7362C9.79671 17.7362 8.58487 17.6453 6.85543 16.4544C7.02012 16.8861 7.32903 17.2475 7.72977 17.4774C9.05352 18.2608 10.0118 18.6105 11.7482 18.8518C11.7482 18.8518 10.3301 19.1281 7.67906 18.0912C7.91952 18.445 8.26066 18.7185 8.65832 18.8763C9.99781 19.4009 10.7043 19.5758 12.6558 19.4149C12.6558 19.4149 11.4072 19.9395 8.91887 19.5024L8.95909 19.5373C9.31592 19.8504 9.7603 20.0464 10.2321 20.0987C10.9876 20.1826 12.0665 20.2508 12.752 20.0672C12.752 20.0672 11.8024 20.4327 10.129 20.3889C10.2648 20.5334 10.4318 20.6449 10.6173 20.7152C10.8027 20.7855 11.0017 20.8127 11.1992 20.7946C11.7434 20.7807 12.2853 20.7181 12.8184 20.6075C12.2624 20.9573 11.047 21.0255 11.047 21.0255L11.2114 21.4032C11.0453 21.4486 10.8721 21.4906 10.6868 21.5291C9.12172 21.8596 7.78573 22.594 7.20866 23.2113C7.26917 23.2884 7.35226 23.3447 7.44631 23.3723C7.54037 23.3999 7.64069 23.3974 7.73327 23.3652L9.96284 22.6045C9.96284 22.6045 8.57613 23.3425 7.91513 24.0419C8.02825 24.1659 8.18215 24.245 8.34875 24.2649C8.51536 24.2848 8.68357 24.2441 8.8227 24.1504L10.1832 23.2235L8.80871 24.9722C8.86382 25.0248 8.92882 25.0659 8.99994 25.0932C9.07106 25.1204 9.14688 25.1333 9.22301 25.131C9.29914 25.1287 9.37406 25.1114 9.44343 25.0799C9.51279 25.0484 9.57522 25.0035 9.62709 24.9477L10.8774 23.596L9.84567 25.7451C9.9805 25.8029 10.1317 25.8095 10.2711 25.7638C10.4105 25.7181 10.5284 25.6232 10.6029 25.4968L11.3845 24.1958L10.9438 26.0214C11.1058 26.0391 11.2689 25.9997 11.4049 25.91C11.5409 25.8203 11.6413 25.6859 11.6888 25.5301L12.0717 24.2728L12.1959 26.0389C12.3048 26.0308 12.4062 25.9807 12.4787 25.8991C12.5511 25.8174 12.589 25.7108 12.5841 25.6018C12.5579 24.8743 12.6366 23.3722 13.698 23.0312C15.1127 22.5783 16.8299 23.1554 18.8619 21.4574C20.8938 19.7594 20.3325 17.9828 20.4689 17.6103C20.5716 17.3781 20.7349 17.1778 20.9416 17.0304C21.1484 16.883 21.391 16.794 21.644 16.7727C21.644 16.7727 20.7924 16.1484 20.4829 15.6518Z" fill="white"/>
<path d="M24.3101 12.5572C24.3123 12.5211 24.3182 12.4854 24.3276 12.4505C24.3276 12.426 24.345 12.405 24.3748 12.4085C24.4719 12.4165 24.5696 12.4006 24.6592 12.3622C24.7488 12.3238 24.8276 12.264 24.8889 12.1882C24.9546 12.121 25.0132 12.0472 25.0638 11.9679C25.104 11.9206 25.125 11.8612 25.1599 11.8122C25.3011 11.5226 25.3667 11.202 25.3505 10.8802C25.3544 10.8587 25.351 10.8366 25.3409 10.8172C25.3308 10.7979 25.3145 10.7825 25.2946 10.7735C25.2755 10.7669 25.2548 10.7669 25.2357 10.7735C25.2166 10.7802 25.2004 10.7931 25.1897 10.8102C25.1226 10.8825 25.0482 10.9476 24.9676 11.0043C24.7123 11.1799 24.5136 11.426 24.3958 11.7126C24.3958 11.7126 24.3835 11.7265 24.3713 11.7423C24.3444 11.6462 24.3263 11.5479 24.3171 11.4485C24.3171 11.403 24.3171 11.3558 24.3031 11.3104C24.2812 11.244 24.2774 11.1731 24.2922 11.1048C24.307 11.0366 24.3397 10.9735 24.387 10.9221C24.5322 10.7683 24.5077 10.5444 24.4587 10.3433C24.4068 10.1409 24.3133 9.95156 24.1842 9.78726C23.9956 9.54366 23.8244 9.28714 23.6718 9.01959C23.6543 8.98986 23.6403 8.94264 23.5949 8.95663C23.5494 8.97062 23.5721 9.01784 23.5774 9.05106C23.5928 9.14272 23.5813 9.23689 23.5442 9.32211C23.4707 9.49697 23.4217 9.69283 23.3693 9.87819C23.2259 10.3136 23.6141 10.9501 24.0688 11.0183C24.085 11.018 24.1011 11.0211 24.116 11.0275C24.131 11.0338 24.1444 11.0432 24.1555 11.0551C24.1665 11.067 24.175 11.0811 24.1802 11.0964C24.1855 11.1118 24.1874 11.1281 24.1859 11.1442C24.1999 11.3418 24.2226 11.5394 24.2419 11.737C24.2419 11.779 24.2419 11.821 24.2419 11.8577C24.2383 11.8599 24.2344 11.8614 24.2302 11.8621C24.2261 11.8628 24.2219 11.8626 24.2178 11.8616C24.2137 11.8607 24.2099 11.8589 24.2065 11.8564C24.2032 11.8539 24.2003 11.8508 24.1982 11.8472C24.0136 11.6165 23.7816 11.428 23.5179 11.2946C23.384 11.2347 23.2646 11.1464 23.1682 11.0358C23.1437 11.0008 23.1035 10.9694 23.058 11.0008C23.0126 11.0323 23.0335 11.0743 23.058 11.1145C23.1311 11.3006 23.1947 11.4903 23.2486 11.6828C23.3536 11.9695 23.53 12.2247 23.761 12.4243C23.8536 12.5062 23.9636 12.566 24.0827 12.5991C24.13 12.6096 24.1649 12.6236 24.1527 12.6831C24.0675 13.1561 23.9057 13.6121 23.6736 14.0331C23.6578 14.0593 23.6456 14.1047 23.6071 14.0925C23.5686 14.0803 23.5809 14.0435 23.5756 14.0138C23.5632 13.9369 23.5609 13.8587 23.5686 13.7812C23.5844 13.5894 23.5616 13.3963 23.5016 13.2134C23.4415 13.0305 23.3454 12.8614 23.2189 12.7163C23.1686 12.6427 23.1099 12.5753 23.044 12.5152C23.0091 12.4872 22.9706 12.4592 22.9269 12.4837C22.9094 12.4966 22.8971 12.5153 22.892 12.5364C22.8869 12.5574 22.8893 12.5797 22.8989 12.5991C22.9357 12.7241 22.9357 12.8571 22.8989 12.9821C22.8607 13.1741 22.8637 13.3719 22.9076 13.5627C22.9608 13.7621 23.0774 13.9389 23.2399 14.0663C23.3039 14.1268 23.3625 14.1929 23.4148 14.2639C23.4236 14.2714 23.4307 14.2808 23.4356 14.2914C23.4405 14.3019 23.443 14.3134 23.443 14.3251C23.443 14.3367 23.4405 14.3482 23.4356 14.3588C23.4307 14.3694 23.4236 14.3787 23.4148 14.3863C23.364 14.4335 23.3151 14.4825 23.2661 14.5314C23.2451 14.5524 23.2137 14.5647 23.2014 14.5944C23.1455 14.6503 23.086 14.7028 23.0265 14.757C23.0108 14.7727 22.9968 14.799 22.9688 14.7885C22.9409 14.778 22.9461 14.7465 22.9444 14.7203C22.9444 14.6049 22.9444 14.4912 22.9216 14.3705C22.8869 14.1221 22.775 13.8909 22.6016 13.7095C22.3652 13.509 22.0787 13.3766 21.7727 13.3266C21.743 13.3266 21.6853 13.2899 21.7028 13.3721C21.7546 13.705 21.8294 14.034 21.9266 14.3566C21.965 14.4944 22.0337 14.6219 22.1278 14.7296C22.2219 14.8373 22.339 14.9226 22.4705 14.9791H22.488C22.6733 15.0735 22.6733 15.084 22.5299 15.2344C22.3519 15.3926 22.1848 15.5626 22.0298 15.7433C21.9913 15.794 21.9633 15.7922 21.9476 15.7258C21.9067 15.5848 21.8479 15.4497 21.7727 15.3236C21.6838 15.1516 21.5654 14.9965 21.423 14.8654C21.2551 14.73 21.1159 14.5623 21.0138 14.3723C21.0089 14.3562 20.998 14.3427 20.9833 14.3345C20.9686 14.3264 20.9513 14.3242 20.9351 14.3286C20.8949 14.3391 20.8897 14.3758 20.8967 14.409C20.9237 14.6054 20.9343 14.8037 20.9281 15.0018C20.938 15.2259 20.9972 15.4451 21.1015 15.6436C21.2057 15.8422 21.3526 16.0154 21.5314 16.1507C21.7063 16.2906 21.7063 16.2889 21.6136 16.5004C21.5116 16.8112 21.439 17.1309 21.3968 17.4552C21.3424 17.9003 21.3848 18.3518 21.5209 18.779C21.5507 18.8821 21.6189 18.9329 21.6958 18.9154C21.7727 18.8979 21.8217 18.8192 21.799 18.709C21.7762 18.5989 21.7518 18.5167 21.7238 18.4222C21.5417 17.7585 21.5929 17.0523 21.8689 16.4218C21.8899 16.371 21.9214 16.3605 21.9738 16.3518C22.1983 16.341 22.4229 16.3712 22.6366 16.441C22.949 16.5159 23.2685 16.5569 23.5896 16.5634C23.766 16.5538 23.9348 16.489 24.0723 16.378C24.2633 16.2201 24.4389 16.0445 24.5969 15.8534C24.6092 15.8421 24.6173 15.827 24.6199 15.8104C24.6224 15.7939 24.6192 15.777 24.6108 15.7625C24.6026 15.7457 24.588 15.7329 24.5704 15.7267C24.5528 15.7205 24.5334 15.7214 24.5164 15.7293C24.2401 15.8394 23.9603 15.7607 23.6823 15.7415C23.351 15.6957 23.0141 15.7087 22.6873 15.78C22.5382 15.8216 22.3945 15.8803 22.2589 15.9549L22.07 16.0563C22.107 15.9523 22.1667 15.8579 22.2449 15.78C22.453 15.5684 22.6663 15.3586 22.8814 15.154C22.9208 15.1255 22.9661 15.1063 23.0139 15.0978C23.0618 15.0893 23.1109 15.0918 23.1577 15.105C23.3326 15.1277 23.4882 15.161 23.6543 15.1889C23.7418 15.1889 23.8292 15.2099 23.9131 15.2152C24.1385 15.227 24.3637 15.1895 24.573 15.1052C24.7823 15.0209 24.9707 14.8919 25.125 14.7273C25.1714 14.6727 25.2129 14.6142 25.2491 14.5524C25.289 14.509 25.3317 14.4681 25.3768 14.43C25.3908 14.374 25.3593 14.3496 25.3121 14.3426L24.8819 14.2884C24.703 14.2665 24.5222 14.2665 24.3433 14.2884C24.1325 14.3194 23.9267 14.3782 23.7313 14.4632C23.6718 14.4912 23.6106 14.5157 23.5564 14.5472C23.5372 14.5577 23.5127 14.5786 23.4934 14.5472C23.4742 14.5157 23.5057 14.5104 23.5197 14.4947C23.5345 14.4775 23.5503 14.4612 23.5669 14.4457C23.7568 14.2349 23.9025 13.9882 23.9953 13.72C24.0076 13.6781 24.0233 13.6396 24.0373 13.5994C24.0583 13.5015 24.1195 13.5417 24.1737 13.5574C24.3498 13.5914 24.5316 13.5827 24.7037 13.5322C24.8759 13.4818 25.0335 13.3909 25.1634 13.2671C25.3499 13.0708 25.5055 12.8473 25.6251 12.6044C25.6601 12.5484 25.6915 12.4907 25.723 12.4295C25.7335 12.4167 25.7393 12.4006 25.7393 12.384C25.7393 12.3675 25.7335 12.3514 25.723 12.3386C25.7112 12.3289 25.6963 12.3237 25.681 12.3237C25.6658 12.3237 25.6509 12.3289 25.6391 12.3386C25.5232 12.3958 25.3994 12.4353 25.2718 12.4557C24.9064 12.5265 24.57 12.7035 24.3048 12.9646C24.2994 12.9748 24.2909 12.983 24.2806 12.988C24.2702 12.9931 24.2585 12.9947 24.2471 12.9926L24.2996 12.7145C24.3066 12.6624 24.3101 12.6098 24.3101 12.5572Z" fill="#FDC72F"/>
</svg>
