<svg width="229" height="64" viewBox="0 0 229 64" fill="none" xmlns="http://www.w3.org/2000/svg">
<path d="M29.808 32.903C32.966 34.1314 34.4804 30.895 34.4804 30.895C27.8336 22.0606 30.6774 5.09307 30.9186 3.78054C31.1935 2.37826 31.3954 0 31.3954 0C30.8381 0.273547 30.348 0.666751 29.9602 1.15155C29.5723 1.63634 29.2963 2.20077 29.1518 2.80455C28.5516 5.19964 27.7944 9.84959 28.445 16.6647C28.445 16.6647 27.2783 8.77264 28.0916 2.13707C27.2537 2.86734 26.5852 3.77168 26.1327 4.78696C25.6803 5.80225 25.4549 6.90403 25.4722 8.01542C25.4722 11.2014 25.8031 15.655 27.312 18.7961C27.312 18.7961 24.7767 14.6005 24.4177 6.31586C23.4078 7.86923 23.0082 9.74126 23.2959 11.5716C23.7222 14.4322 24.5972 18.5325 26.3584 21.668C26.3584 21.668 23.1612 16.3393 21.9609 10.9434V10.9714C21.162 12.8688 21.094 14.9949 21.7702 16.9395C22.3685 18.7717 23.09 20.5613 23.9297 22.2962C22.403 20.4353 21.1247 18.3839 20.1267 16.1935C19.6593 17.9035 19.8205 19.7245 20.5811 21.3258C21.5779 23.5297 22.9608 25.5376 24.6645 27.2547C22.5579 25.4648 20.6082 23.4982 18.8366 21.3763C18.6945 22.1888 18.7464 23.0234 18.9882 23.812C19.2299 24.6006 19.6546 25.3208 20.2277 25.9141C22.8913 28.7389 26.039 31.064 29.522 32.7796L29.808 32.903Z" fill="#00A5E4"/>
<path d="M45.6193 30.682C44.0544 28.1747 41.3676 26.722 38.0414 28.7468C34.7152 30.7717 33.9243 36.0387 28.9659 33.7446C24.0074 31.4504 16.4127 26.363 10.8597 14.6512C6.02462 4.44258 7.44372 2.61962 5.94048 2.38965C5.73294 2.38965 5.45249 2.55231 5.12155 2.95056C4.25581 3.99556 3.82237 5.33202 3.90998 6.68623C4.07265 9.71514 5.50297 16.059 13.064 25.1963C13.064 25.1963 7.76905 23.0031 2.07581 9.86098L1.98045 9.64783C1.90753 9.87781 1.84022 10.1134 1.76731 10.349C1.50657 11.2081 1.54814 12.1306 1.8851 12.9628C3.15276 16.0983 6.93329 24.2483 13.4342 29.5321C13.4342 29.5321 8.49263 28.8646 0.634266 15.0887C0.600611 15.2794 0.566956 15.4757 0.538911 15.6496C0.344024 16.8271 0.561989 18.0358 1.15591 19.0711C3.20885 22.7002 7.62882 29.3919 13.9671 33.0939C13.9671 33.0939 8.76747 32.8303 0.000436344 21.068V21.584C-0.0149896 22.8346 0.378974 24.0559 1.12226 25.0617C3.45565 28.2701 8.30192 33.9577 14.5841 35.9994C14.5841 35.9994 11.0448 37.6092 0.359419 27.0585C0.359419 27.2773 0.421119 27.4904 0.454774 27.7036C0.853021 30.4296 3.33225 33.3912 11.3421 37.368C11.3421 37.368 7.45494 37.0764 1.90753 33.2566C2.43581 34.6412 3.42666 35.8004 4.71209 36.5379C8.95818 39.0508 12.032 40.1726 17.6018 40.9467C17.6018 40.9467 13.0528 41.8329 4.54942 38.5067C5.32074 39.6417 6.41499 40.5191 7.69052 41.0252C11.9871 42.7079 14.2532 43.2688 20.5129 42.7528C20.5129 42.7528 16.508 44.4355 8.52628 43.0332L8.65529 43.1454C9.79984 44.1497 11.2253 44.7783 12.7387 44.9459C15.1619 45.2152 18.6227 45.4339 20.8214 44.845C20.8214 44.845 17.7757 46.0173 12.4078 45.8771C12.8437 46.3403 13.3793 46.6982 13.9741 46.9237C14.5688 47.1492 15.2071 47.2363 15.8406 47.1784C17.5863 47.1337 19.3246 46.9329 21.0346 46.5782C19.2509 47.7 15.3526 47.9188 15.3526 47.9188L15.8798 49.1303C15.347 49.2762 14.7917 49.4108 14.1971 49.5342C9.17694 50.5943 4.89158 52.9501 3.04057 54.9302C3.23467 55.1775 3.50118 55.358 3.80287 55.4465C4.10456 55.535 4.42636 55.5271 4.72331 55.4238L11.8749 52.9838C11.8749 52.9838 7.4269 55.3508 5.30665 57.5945C5.66951 57.992 6.16316 58.2458 6.69756 58.3096C7.23196 58.3735 7.7715 58.2431 8.21778 57.9423L12.5817 54.9694L8.17291 60.5785C8.34968 60.7472 8.55818 60.879 8.78631 60.9664C9.01444 61.0539 9.25765 61.0951 9.50185 61.0878C9.74604 61.0805 9.98636 61.0248 10.2089 60.9239C10.4313 60.823 10.6316 60.6789 10.798 60.5L14.8085 56.1642L11.4991 63.0578C11.9316 63.2429 12.4167 63.2642 12.8637 63.1176C13.3107 62.971 13.689 62.6666 13.9279 62.2613L16.4351 58.0881L15.0216 63.944C15.5411 64.0007 16.0641 63.8742 16.5004 63.5865C16.9366 63.2987 17.2587 62.8677 17.4111 62.3678L18.6395 58.3349L19.0378 64.0001C19.3869 63.9742 19.7122 63.8133 19.9447 63.5515C20.1772 63.2897 20.2985 62.9476 20.283 62.5978C20.1988 60.2644 20.4512 55.4462 23.856 54.3524C28.3937 52.8997 33.9019 54.7507 40.4197 49.3042C46.9375 43.8578 45.1369 38.1589 45.5744 36.9642C45.9038 36.2193 46.4275 35.5768 47.0908 35.104C47.754 34.6313 48.5322 34.3458 49.3438 34.2774C49.3438 34.2774 46.6121 32.275 45.6193 30.682Z" fill="#00A5E4"/>
<path d="M57.8942 20.7536C57.9015 20.6379 57.9203 20.5233 57.9503 20.4114C57.9503 20.3329 58.0064 20.2656 58.1017 20.2768C58.4134 20.3023 58.7266 20.2513 59.014 20.1281C59.3014 20.0049 59.5544 19.8133 59.7508 19.57C59.9617 19.3545 60.1497 19.1176 60.3117 18.8633C60.4407 18.7118 60.508 18.5211 60.6202 18.3641C61.073 17.4351 61.2833 16.4066 61.2316 15.3744C61.2441 15.3055 61.2332 15.2345 61.2007 15.1725C61.1682 15.1105 61.1159 15.0611 61.0521 15.0323C60.991 15.0109 60.9244 15.0109 60.8633 15.0323C60.8021 15.0537 60.7501 15.0952 60.7156 15.1501C60.5005 15.3819 60.2618 15.5906 60.0032 15.7727C59.1844 16.3359 58.5471 17.1252 58.1691 18.0444C58.1691 18.0444 58.1298 18.0892 58.0905 18.1397C58.0043 17.8315 57.9461 17.5161 57.9166 17.1974C57.9166 17.0516 57.9166 16.9001 57.8718 16.7543C57.8016 16.5416 57.7895 16.3139 57.8369 16.095C57.8842 15.8761 57.9892 15.6738 58.141 15.509C58.6066 15.0154 58.528 14.2975 58.371 13.6524C58.2044 13.0032 57.9045 12.3957 57.4903 11.8687C56.8856 11.0874 56.3364 10.2646 55.8469 9.40634C55.7908 9.31098 55.7459 9.15953 55.6001 9.20441C55.4542 9.24928 55.5272 9.40073 55.544 9.5073C55.5935 9.80131 55.5565 10.1034 55.4374 10.3767C55.2018 10.9376 55.0448 11.5658 54.8765 12.1604C54.4166 13.5571 55.6618 15.5988 57.1201 15.8175C57.1722 15.8165 57.2239 15.8265 57.2718 15.8468C57.3197 15.8672 57.3628 15.8974 57.3983 15.9355C57.4338 15.9736 57.4608 16.0188 57.4776 16.068C57.4945 16.1173 57.5007 16.1696 57.496 16.2214C57.5408 16.8552 57.6137 17.4891 57.6754 18.1229C57.6754 18.2575 57.6754 18.3921 57.6754 18.5099C57.6641 18.5171 57.6514 18.5218 57.6381 18.524C57.6249 18.5262 57.6113 18.5257 57.5983 18.5225C57.5852 18.5194 57.5729 18.5137 57.5621 18.5058C57.5513 18.4978 57.5421 18.4878 57.5352 18.4763C56.9431 17.7361 56.199 17.1317 55.3533 16.7038C54.9236 16.5116 54.5408 16.2284 54.2315 15.8736C54.1529 15.7615 54.0239 15.6605 53.8781 15.7615C53.7322 15.8624 53.7996 15.997 53.8781 16.126C54.1123 16.7231 54.3164 17.3315 54.4895 17.949C54.8262 18.8686 55.3919 19.6871 56.1329 20.3273C56.4301 20.59 56.783 20.7818 57.165 20.8882C57.3165 20.9218 57.4286 20.9667 57.3894 21.1574C57.1162 22.6749 56.5971 24.1375 55.8525 25.4876C55.802 25.5718 55.7627 25.7176 55.6393 25.6784C55.5159 25.6391 55.5552 25.5213 55.5384 25.426C55.4986 25.1793 55.4911 24.9285 55.5159 24.6799C55.5666 24.0645 55.4935 23.4451 55.3008 22.8584C55.1081 22.2717 54.7998 21.7296 54.3941 21.264C54.2326 21.0281 54.0444 20.8116 53.8332 20.6189C53.721 20.5292 53.5976 20.4395 53.4574 20.518C53.4015 20.5594 53.3618 20.6192 53.3454 20.6868C53.329 20.7545 53.3369 20.8257 53.3677 20.8882C53.4856 21.2892 53.4856 21.7156 53.3677 22.1166C53.2451 22.7323 53.2547 23.367 53.3957 23.9788C53.5662 24.6186 53.9403 25.1857 54.4614 25.5942C54.6669 25.7884 54.8546 26.0005 55.0223 26.2281C55.0507 26.2523 55.0736 26.2824 55.0892 26.3163C55.1048 26.3502 55.1129 26.387 55.1129 26.4244C55.1129 26.4617 55.1048 26.4986 55.0892 26.5325C55.0736 26.5664 55.0507 26.5965 55.0223 26.6207C54.8597 26.7721 54.7026 26.9292 54.5456 27.0862C54.4783 27.1536 54.3773 27.1928 54.338 27.2882C54.1585 27.4677 53.9678 27.6359 53.7771 27.8098C53.7266 27.8603 53.6818 27.9444 53.592 27.9108C53.5023 27.8771 53.5191 27.7762 53.5135 27.692C53.5135 27.3218 53.5135 26.9572 53.4406 26.5702C53.3292 25.7733 52.9701 25.0316 52.4141 24.45C51.6559 23.8066 50.7367 23.382 49.7554 23.2216C49.66 23.2216 49.4749 23.1038 49.531 23.3674C49.6971 24.4354 49.937 25.4905 50.249 26.5253C50.3719 26.9674 50.5925 27.3763 50.8944 27.7219C51.1963 28.0675 51.5718 28.341 51.9934 28.5222H52.0495C52.6441 28.8251 52.6441 28.8587 52.1841 29.3411C51.6132 29.8484 51.0773 30.3938 50.5799 30.9734C50.4565 31.136 50.3668 31.1304 50.3163 30.9173C50.1849 30.4651 49.9965 30.0316 49.7554 29.6272C49.4701 29.0756 49.0905 28.5782 48.6336 28.1576C48.0948 27.7232 47.6486 27.1854 47.321 26.5758C47.3054 26.5242 47.2703 26.4808 47.2232 26.4546C47.1761 26.4284 47.1207 26.4216 47.0686 26.4356C46.9396 26.4692 46.9228 26.587 46.9452 26.6936C47.0321 27.3235 47.0659 27.9596 47.0462 28.5951C47.0779 29.3139 47.2677 30.0168 47.6022 30.6538C47.9367 31.2908 48.4076 31.8462 48.9813 32.2803C49.5422 32.729 49.5422 32.7234 49.245 33.4021C48.9177 34.3989 48.6849 35.4243 48.5494 36.4647C48.3752 37.8922 48.511 39.3405 48.9477 40.7108C49.043 41.0417 49.2618 41.2044 49.5086 41.1483C49.7554 41.0922 49.9124 40.8398 49.8395 40.4864C49.7666 40.133 49.6881 39.8694 49.5983 39.5665C49.0143 37.4374 49.1786 35.1722 50.0639 33.1497C50.1312 32.987 50.2322 32.9534 50.4004 32.9253C51.1206 32.8906 51.841 32.9876 52.5263 33.2114C53.5282 33.4516 54.5531 33.5832 55.5833 33.604C56.1489 33.5733 56.6905 33.3653 57.1314 33.0095C57.7441 32.5029 58.3075 31.9395 58.8141 31.3267C58.8537 31.2905 58.8797 31.2418 58.8879 31.1888C58.896 31.1358 58.8858 31.0815 58.859 31.0351C58.8324 30.9813 58.7858 30.9401 58.7292 30.9202C58.6726 30.9002 58.6105 30.9032 58.5561 30.9285C57.6698 31.2819 56.7724 31.0294 55.8805 30.9677C54.8177 30.8207 53.7373 30.8625 52.689 31.0912C52.2108 31.2246 51.7497 31.4128 51.3147 31.6521L50.7089 31.9774C50.8275 31.6438 51.0191 31.341 51.2698 31.0912C51.9373 30.4124 52.6216 29.7394 53.3116 29.0831C53.4378 28.9917 53.5832 28.9301 53.7367 28.9029C53.8902 28.8757 54.0478 28.8836 54.1978 28.926C54.7587 28.999 55.2579 29.1055 55.7908 29.1953C56.0712 29.1953 56.3517 29.2626 56.6209 29.2794C57.3437 29.3174 58.0661 29.197 58.7375 28.9267C59.4089 28.6563 60.0132 28.2426 60.508 27.7145C60.657 27.5395 60.7902 27.3518 60.9063 27.1536C61.0344 27.0142 61.1711 26.883 61.3158 26.7609C61.3606 26.5814 61.2597 26.5029 61.1082 26.4805L59.7284 26.3066C59.1547 26.2364 58.5745 26.2364 58.0008 26.3066C57.3245 26.4061 56.6644 26.5947 56.0376 26.8675C55.8469 26.9572 55.6506 27.0358 55.4767 27.1367C55.415 27.1704 55.3365 27.2377 55.2747 27.1367C55.213 27.0358 55.314 27.0189 55.3589 26.9685C55.4065 26.9134 55.457 26.861 55.5103 26.8114C56.1195 26.1352 56.5868 25.3437 56.8846 24.4836C56.9238 24.349 56.9743 24.2256 57.0192 24.0966C57.0865 23.7825 57.2828 23.9115 57.4567 23.962C58.0218 24.0709 58.6047 24.0432 59.1569 23.8812C59.7092 23.7193 60.2147 23.4277 60.6315 23.0309C61.2295 22.401 61.7288 21.6843 62.1123 20.905C62.2244 20.7255 62.3254 20.5404 62.4264 20.3441C62.4601 20.303 62.4785 20.2514 62.4785 20.1983C62.4785 20.1451 62.4601 20.0935 62.4264 20.0524C62.3883 20.0214 62.3408 20.0045 62.2917 20.0045C62.2427 20.0045 62.1952 20.0214 62.1571 20.0524C61.7856 20.2361 61.3885 20.3628 60.9792 20.4282C59.8071 20.6551 58.7281 21.2229 57.8774 22.0605C57.8601 22.0932 57.8328 22.1195 57.7995 22.1357C57.7662 22.1518 57.7287 22.1569 57.6923 22.1502L57.8605 21.2584C57.8831 21.0911 57.8944 20.9224 57.8942 20.7536Z" fill="#FDC72F"/>
<path d="M84.5642 19.3906V32.9254H81.4343V27.378H75.2643V32.9254H72.1288V19.3906H75.2643V24.7249H81.4343V19.3906H84.5642Z" fill="#00A5E4"/>
<path d="M90.5337 32.2522C89.4351 31.6714 88.5187 30.7977 87.8862 29.7281C87.2576 28.6372 86.9268 27.4002 86.9268 26.1411C86.9268 24.882 87.2576 23.645 87.8862 22.5541C88.5212 21.4906 89.4373 20.623 90.5337 20.0468C91.7109 19.4514 93.0117 19.1411 94.331 19.1411C95.6503 19.1411 96.9511 19.4514 98.1284 20.0468C99.2209 20.6284 100.136 21.4948 100.776 22.5541C101.408 23.6439 101.741 24.8813 101.741 26.1411C101.741 27.4009 101.408 28.6383 100.776 29.7281C100.143 30.7914 99.2337 31.6635 98.1452 32.2522C96.9679 32.8477 95.6671 33.1579 94.3479 33.1579C93.0286 33.1579 91.7278 32.8477 90.5505 32.2522H90.5337ZM96.5018 29.9413C97.1399 29.5782 97.6658 29.0465 98.0218 28.4044C98.3822 27.7114 98.5703 26.9418 98.5703 26.1607C98.5703 25.3796 98.3822 24.6101 98.0218 23.9171C97.6658 23.275 97.1399 22.7432 96.5018 22.3802C95.8361 22.0194 95.091 21.8304 94.3338 21.8304C93.5767 21.8304 92.8315 22.0194 92.1659 22.3802C91.5295 22.7436 91.0055 23.2754 90.6515 23.9171C90.2911 24.6101 90.103 25.3796 90.103 26.1607C90.103 26.9418 90.2911 27.7114 90.6515 28.4044C91.0055 29.0461 91.5295 29.5779 92.1659 29.9413C92.8315 30.3021 93.5767 30.4911 94.3338 30.4911C95.091 30.4911 95.8361 30.3021 96.5018 29.9413Z" fill="#00A5E4"/>
<path d="M113.088 19.9854C113.703 20.2797 114.25 20.7002 114.692 21.2195C115.134 21.7388 115.462 22.3453 115.655 22.9997C115.847 23.654 115.9 24.3416 115.81 25.0177C115.719 25.6937 115.487 26.3432 115.129 26.9239C114.629 27.6733 113.919 28.2586 113.088 28.6066C112.097 29.0099 111.033 29.201 109.963 29.1675H107.237V32.9256H104.102V19.3908H109.963C111.035 19.3651 112.1 19.5678 113.088 19.9854ZM111.966 26.032C112.213 25.8189 112.408 25.5518 112.536 25.2512C112.663 24.9506 112.72 24.6247 112.701 24.2988C112.72 23.9704 112.663 23.642 112.536 23.3387C112.409 23.0354 112.214 22.7653 111.966 22.5488C111.341 22.1046 110.582 21.8905 109.818 21.943H107.265V26.6434H109.818C110.573 26.6877 111.322 26.472 111.938 26.032H111.966Z" fill="#00A5E4"/>
<path d="M128.552 30.4125V32.9254H118.069V19.3906H128.3V21.9035H121.182V24.8427H127.47V27.277H121.182V30.4125H128.552Z" fill="#00A5E4"/>
<path d="M139.252 32.2579C138.164 31.6838 137.254 30.8224 136.621 29.7675C135.994 28.6677 135.665 27.4238 135.665 26.158C135.665 24.8923 135.994 23.6483 136.621 22.5486C137.252 21.4923 138.162 20.6306 139.252 20.0581C140.411 19.4478 141.705 19.1373 143.015 19.155C144.107 19.14 145.189 19.3501 146.196 19.7721C147.121 20.1706 147.94 20.7816 148.585 21.5557L146.572 23.4124C146.161 22.9086 145.642 22.5041 145.054 22.2292C144.465 21.9543 143.822 21.8161 143.172 21.825C142.389 21.815 141.616 22.0083 140.929 22.3859C140.28 22.7425 139.745 23.2753 139.386 23.9228C139.026 24.6158 138.838 25.3854 138.838 26.1664C138.838 26.9475 139.026 27.7171 139.386 28.4101C139.745 29.0576 140.28 29.5903 140.929 29.947C141.616 30.3246 142.389 30.5178 143.172 30.5079C143.824 30.5159 144.468 30.3757 145.057 30.0978C145.646 29.8198 146.164 29.4115 146.572 28.9037L148.585 30.7603C147.944 31.5441 147.122 32.1602 146.19 32.5552C145.185 32.9726 144.104 33.1788 143.015 33.161C141.705 33.1814 140.41 32.8707 139.252 32.2579Z" fill="#00A5E4"/>
<path d="M153.164 32.2524C152.063 31.6724 151.145 30.7987 150.511 29.7283C149.886 28.6361 149.557 27.3996 149.557 26.1413C149.557 24.883 149.886 23.6465 150.511 22.5543C151.147 21.4901 152.065 20.6224 153.164 20.047C154.34 19.4499 155.64 19.1387 156.958 19.1387C158.277 19.1387 159.577 19.4499 160.753 20.047C161.858 20.6356 162.782 21.5137 163.427 22.5872C164.071 23.6607 164.412 24.8892 164.412 26.1413C164.412 27.3934 164.071 28.622 163.427 29.6955C162.782 30.769 161.858 31.647 160.753 32.2356C159.577 32.8327 158.277 33.1439 156.958 33.1439C155.64 33.1439 154.34 32.8327 153.164 32.2356V32.2524ZM159.126 29.9415C159.765 29.5798 160.292 29.0478 160.646 28.4046C161.007 27.7116 161.195 26.942 161.195 26.1609C161.195 25.3799 161.007 24.6103 160.646 23.9173C160.292 23.2741 159.765 22.7421 159.126 22.3804C158.462 22.0196 157.717 21.8306 156.961 21.8306C156.205 21.8306 155.461 22.0196 154.796 22.3804C154.158 22.7435 153.632 23.2752 153.276 23.9173C152.916 24.6103 152.727 25.3799 152.727 26.1609C152.727 26.942 152.916 27.7116 153.276 28.4046C153.632 29.0467 154.158 29.5784 154.796 29.9415C155.461 30.3023 156.205 30.4913 156.961 30.4913C157.717 30.4913 158.462 30.3023 159.126 29.9415Z" fill="#00A5E4"/>
<path d="M166.734 19.3906H169.864V30.3733H176.673V32.9254H166.734V19.3906Z" fill="#00A5E4"/>
<path d="M178.412 19.3906H181.547V30.3733H188.334V32.9254H178.412V19.3906Z" fill="#00A5E4"/>
<path d="M200.577 30.4125V32.9254H190.094V19.3906H200.325V21.9035H193.207V24.8427H199.495V27.277H193.207V30.4125H200.577Z" fill="#00A5E4"/>
<path d="M212.181 25.9478H215.042V31.4391C214.274 32.0128 213.41 32.4441 212.49 32.7124C211.545 33.0072 210.562 33.1585 209.573 33.1611C208.253 33.1812 206.95 32.8707 205.781 32.2581C204.689 31.6856 203.775 30.8241 203.139 29.7676C202.513 28.6678 202.183 27.4239 202.183 26.1582C202.183 24.8924 202.513 23.6485 203.139 22.5487C203.777 21.4875 204.697 20.6251 205.798 20.0583C206.981 19.4455 208.297 19.1352 209.629 19.1552C210.735 19.141 211.833 19.3449 212.86 19.7554C213.797 20.1351 214.631 20.7309 215.294 21.4942L213.286 23.3508C212.841 22.8616 212.296 22.4725 211.689 22.2095C211.082 21.9465 210.425 21.8155 209.764 21.8251C208.96 21.8139 208.167 22.0069 207.458 22.386C206.801 22.7334 206.257 23.2632 205.893 23.9117C205.529 24.6034 205.338 25.3735 205.338 26.1554C205.338 26.9372 205.529 27.7073 205.893 28.399C206.257 29.0465 206.796 29.579 207.447 29.9359C208.146 30.3137 208.93 30.5068 209.724 30.4968C210.57 30.5151 211.407 30.3223 212.159 29.9359L212.181 25.9478Z" fill="#00A5E4"/>
<path d="M228.432 30.4125V32.9254H217.949V19.3906H228.18V21.9035H221.062V24.8427H227.35V27.277H221.062V30.4125H228.432Z" fill="#00A5E4"/>
<path d="M74.0534 44.4806C73.473 44.1688 72.9897 43.703 72.6568 43.1344C72.3222 42.5515 72.1461 41.891 72.1461 41.2189C72.1461 40.5468 72.3222 39.8863 72.6568 39.3034C72.9897 38.7348 73.473 38.269 74.0534 37.9572C74.6685 37.6267 75.3577 37.4587 76.0559 37.4692C76.7486 37.4594 77.4323 37.6274 78.0415 37.9572C78.6205 38.2684 79.1035 38.732 79.4382 39.2978C79.7674 39.8846 79.9403 40.5461 79.9403 41.2189C79.9403 41.8917 79.7674 42.5532 79.4382 43.14C79.1051 43.7071 78.6217 44.171 78.0415 44.4806C77.4323 44.8104 76.7486 44.9784 76.0559 44.9686C75.3577 44.9791 74.6685 44.8111 74.0534 44.4806ZM77.503 43.6673C77.9286 43.4315 78.2802 43.0819 78.5183 42.6576C78.7613 42.2171 78.8888 41.7221 78.8888 41.2189C78.8888 40.7157 78.7613 40.2207 78.5183 39.7802C78.2786 39.3571 77.9274 39.0079 77.503 38.7705C77.0617 38.5223 76.5621 38.3965 76.0559 38.4059C75.5444 38.3972 75.0396 38.523 74.5919 38.7705C74.1643 39.0074 73.8094 39.3565 73.5654 39.7802C73.3224 40.2207 73.1949 40.7157 73.1949 41.2189C73.1949 41.7221 73.3224 42.2171 73.5654 42.6576C73.8077 43.0825 74.163 43.432 74.5919 43.6673C75.0391 43.9166 75.5439 44.0442 76.0559 44.0375C76.5626 44.045 77.0621 43.9172 77.503 43.6673Z" fill="#FDC72F"/>
<path d="M85.2045 38.4673V41.0194H88.8784V41.9225H85.2045V44.8729H84.1556V37.5811H89.3328V38.4953L85.2045 38.4673Z" fill="#FDC72F"/>
<path d="M103.528 43.0499H99.6301L98.8223 44.8729H97.7454L101.066 37.5811H102.104L105.435 44.8729H104.314L103.528 43.0499ZM103.158 42.2142L101.576 38.6243L99.9946 42.2142H103.158Z" fill="#FDC72F"/>
<path d="M114.037 44.8731L112.461 42.6294H112.001H110.189V44.8731H109.14V37.5812H112.001C112.807 37.5329 113.603 37.7758 114.245 38.2656C114.516 38.4941 114.731 38.7819 114.873 39.1068C115.015 39.4316 115.08 39.7848 115.064 40.139C115.079 40.6519 114.932 41.1565 114.643 41.5805C114.348 41.9907 113.929 42.2954 113.448 42.4499L115.187 44.9123L114.037 44.8731ZM113.476 41.3225C113.643 41.1652 113.775 40.9757 113.866 40.7654C113.956 40.5552 114.003 40.3287 114.003 40.0997C114.003 39.8708 113.956 39.6443 113.866 39.434C113.775 39.2238 113.643 39.0342 113.476 38.8769C113.032 38.5691 112.496 38.4208 111.956 38.4563H110.178V41.7544H111.956C112.5 41.7952 113.041 41.6465 113.488 41.3337L113.476 41.3225Z" fill="#FDC72F"/>
<path d="M120.715 38.4673H118.202V37.5811H124.266V38.4953H121.753V44.8729H120.715V38.4673Z" fill="#FDC72F"/>
<path d="M128.474 44.7102C128.027 44.5788 127.614 44.3531 127.262 44.0483L127.649 43.2294C127.964 43.5 128.327 43.7076 128.72 43.8408C129.152 43.9969 129.608 44.0766 130.067 44.0764C130.541 44.1103 131.016 44.003 131.43 43.7679C131.568 43.6813 131.683 43.5605 131.761 43.4171C131.84 43.2737 131.88 43.1125 131.878 42.9489C131.884 42.8344 131.864 42.7201 131.822 42.6137C131.779 42.5073 131.714 42.4112 131.632 42.3319C131.458 42.1695 131.252 42.047 131.026 41.973C130.691 41.8612 130.35 41.7676 130.005 41.6925C129.552 41.5868 129.107 41.4538 128.67 41.2943C128.335 41.163 128.037 40.9534 127.801 40.6829C127.547 40.3659 127.419 39.9664 127.442 39.561C127.436 39.1848 127.543 38.8154 127.75 38.5009C127.982 38.1642 128.308 37.9029 128.687 37.7493C129.18 37.5442 129.712 37.4466 130.246 37.4632C130.678 37.4632 131.108 37.5198 131.525 37.6315C131.909 37.7304 132.273 37.8935 132.602 38.1139L132.254 38.9497C131.949 38.757 131.619 38.6078 131.273 38.5065C130.939 38.4077 130.594 38.3567 130.246 38.3551C129.778 38.3212 129.311 38.435 128.911 38.6804C128.774 38.7719 128.661 38.8962 128.584 39.0421C128.506 39.1881 128.467 39.351 128.468 39.5162C128.464 39.6297 128.484 39.7427 128.527 39.848C128.569 39.9533 128.633 40.0485 128.715 40.1276C128.896 40.293 129.11 40.4191 129.343 40.4978C129.675 40.6071 130.012 40.6989 130.353 40.7726C130.804 40.8782 131.247 41.0112 131.682 41.1709C132.013 41.3038 132.308 41.5111 132.546 41.7766C132.803 42.0915 132.932 42.4925 132.905 42.8985C132.91 43.2737 132.8 43.6416 132.591 43.953C132.356 44.2944 132.024 44.5565 131.637 44.7046C131.138 44.9046 130.604 45 130.067 44.9851C129.524 44.982 128.986 44.8891 128.474 44.7102Z" fill="#FDC72F"/>
<path d="M147.845 44.9961L146.869 44.0258C146.366 44.4778 145.748 44.7824 145.083 44.906C144.418 45.0297 143.732 44.9677 143.1 44.7269C142.74 44.5883 142.425 44.3559 142.186 44.0538C141.968 43.7688 141.852 43.4195 141.855 43.061C141.852 42.6286 141.998 42.2085 142.27 41.8719C142.657 41.44 143.119 41.081 143.633 40.8117C143.365 40.5572 143.136 40.2642 142.954 39.9423C142.822 39.6937 142.752 39.4163 142.752 39.1346C142.746 38.9056 142.794 38.6784 142.892 38.471C142.989 38.2636 143.133 38.0818 143.313 37.9399C143.723 37.6244 144.232 37.4653 144.749 37.4911C145.227 37.4634 145.699 37.6088 146.078 37.9006C146.242 38.0367 146.372 38.2088 146.457 38.4034C146.543 38.5981 146.582 38.81 146.572 39.0224C146.575 39.3857 146.448 39.7381 146.213 40.0152C145.864 40.3931 145.452 40.7081 144.996 40.9464L146.808 42.7469C147.023 42.3287 147.174 41.8806 147.256 41.4175L148.064 41.6811C147.953 42.2758 147.737 42.8458 147.425 43.3639L148.406 44.3118L147.845 44.9961ZM146.275 43.4368L144.188 41.367C143.796 41.5637 143.441 41.8275 143.139 42.1467C142.943 42.3719 142.835 42.6611 142.836 42.96C142.835 43.1286 142.876 43.2949 142.957 43.4431C143.037 43.5913 143.154 43.7165 143.296 43.807C143.649 44.0371 144.065 44.1509 144.485 44.1323C144.815 44.1424 145.143 44.0861 145.451 43.9666C145.758 43.8471 146.038 43.6669 146.275 43.4368ZM143.964 38.4727C143.873 38.5521 143.801 38.6507 143.754 38.7613C143.706 38.872 143.684 38.9918 143.689 39.1122C143.687 39.3095 143.74 39.5034 143.84 39.6731C144 39.9288 144.189 40.1658 144.401 40.3798C144.765 40.1942 145.101 39.9582 145.4 39.6787C145.486 39.5969 145.555 39.4988 145.604 39.39C145.652 39.2811 145.678 39.1638 145.68 39.0449C145.681 38.9382 145.658 38.8327 145.613 38.7358C145.569 38.6388 145.504 38.5529 145.422 38.484C145.217 38.3264 144.962 38.2486 144.704 38.2652C144.441 38.245 144.178 38.3185 143.964 38.4727Z" fill="#FDC72F"/>
<path d="M158.257 44.7101C157.81 44.5763 157.395 44.3509 157.04 44.0482L157.427 43.2293C157.743 43.5011 158.109 43.7087 158.504 43.8407C158.935 43.9973 159.391 44.077 159.85 44.0762C160.323 44.1101 160.796 44.0027 161.207 43.7677C161.348 43.6823 161.463 43.5619 161.543 43.4183C161.622 43.2747 161.663 43.113 161.662 42.9488C161.666 42.8345 161.646 42.7206 161.603 42.6143C161.561 42.5081 161.497 42.4119 161.415 42.3318C161.239 42.1701 161.031 42.0477 160.804 41.9728C160.469 41.8603 160.128 41.7667 159.783 41.6924C159.33 41.5859 158.885 41.4529 158.448 41.2941C158.121 41.1598 157.831 40.9503 157.601 40.6827C157.345 40.3665 157.215 39.967 157.236 39.5609C157.231 39.1846 157.338 38.8153 157.545 38.5008C157.778 38.1654 158.103 37.9045 158.481 37.7492C158.975 37.5447 159.507 37.4472 160.041 37.4631C160.473 37.4628 160.903 37.5193 161.32 37.6314C161.704 37.728 162.069 37.8913 162.397 38.1138L162.054 38.9495C161.747 38.757 161.415 38.6078 161.067 38.5064C160.734 38.4075 160.388 38.3565 160.041 38.355C159.576 38.3314 159.115 38.4529 158.723 38.7027C158.585 38.7942 158.473 38.9185 158.395 39.0644C158.318 39.2104 158.278 39.3733 158.28 39.5385C158.275 39.6525 158.296 39.7661 158.339 39.8716C158.383 39.9771 158.449 40.072 158.532 40.1499C158.712 40.3142 158.924 40.4401 159.155 40.5201C159.486 40.6294 159.823 40.7212 160.164 40.7949C160.615 40.9005 161.059 41.0335 161.494 41.1932C161.825 41.3249 162.121 41.5323 162.357 41.7989C162.617 42.113 162.747 42.5141 162.722 42.9208C162.725 43.2966 162.613 43.6644 162.402 43.9753C162.17 44.3166 161.839 44.5788 161.454 44.7269C160.955 44.9269 160.421 45.0223 159.884 45.0074C159.329 45.0008 158.779 44.9002 158.257 44.7101Z" fill="#FDC72F"/>
<path d="M168.129 44.4805C167.554 44.1688 167.075 43.7051 166.744 43.14C166.415 42.5532 166.242 41.8917 166.242 41.2188C166.242 40.546 166.415 39.8845 166.744 39.2977C167.077 38.7323 167.558 38.2687 168.135 37.9571C168.746 37.6273 169.432 37.4593 170.126 37.4692C170.664 37.4646 171.197 37.5637 171.697 37.7608C172.162 37.9462 172.577 38.2383 172.908 38.6134L172.23 39.2641C171.967 38.9807 171.647 38.7565 171.291 38.6066C170.936 38.4566 170.552 38.3844 170.166 38.3947C169.65 38.3853 169.142 38.511 168.69 38.7592C168.26 38.9944 167.903 39.3438 167.658 39.7689C167.415 40.2095 167.288 40.7044 167.288 41.2076C167.288 41.7108 167.415 42.2058 167.658 42.6464C167.901 43.0728 168.259 43.4225 168.69 43.656C169.141 43.906 169.65 44.0336 170.166 44.0262C170.552 44.0325 170.936 43.9574 171.291 43.8057C171.647 43.6539 171.967 43.429 172.23 43.1456L172.908 43.8074C172.575 44.1839 172.158 44.4777 171.691 44.6656C171.189 44.8627 170.654 44.9617 170.115 44.9573C169.423 44.9711 168.74 44.8069 168.129 44.4805Z" fill="#FDC72F"/>
<path d="M177.026 37.5811H178.07V44.8729H177.026V37.5811Z" fill="#FDC72F"/>
<path d="M188.201 43.9754V44.8729H182.884V37.5811H188.055V38.4953H183.961V40.739H187.635V41.6308H183.961V43.9754H188.201Z" fill="#FDC72F"/>
<path d="M198.821 37.5811V44.8729H197.985L193.588 39.4096V44.8729H192.539V37.5811H193.397L197.794 43.0499V37.5811H198.821Z" fill="#FDC72F"/>
<path d="M204.931 44.4805C204.355 44.1688 203.876 43.7051 203.545 43.14C203.216 42.5532 203.043 41.8917 203.043 41.2188C203.043 40.546 203.216 39.8845 203.545 39.2977C203.878 38.7323 204.359 38.2687 204.936 37.9571C205.548 37.6273 206.233 37.4593 206.928 37.4692C207.465 37.4646 207.998 37.5637 208.498 37.7608C208.962 37.9477 209.377 38.2395 209.71 38.6134L209.031 39.2641C208.767 38.982 208.446 38.7595 208.089 38.6115C207.732 38.4635 207.347 38.3934 206.961 38.4059C206.446 38.3965 205.938 38.5222 205.486 38.7705C205.056 39.0056 204.699 39.355 204.454 39.7801C204.211 40.2207 204.083 40.7157 204.083 41.2188C204.083 41.722 204.211 42.217 204.454 42.6576C204.697 43.084 205.054 43.4338 205.486 43.6672C205.937 43.9172 206.446 44.0448 206.961 44.0374C207.348 44.0438 207.731 43.9686 208.087 43.8169C208.443 43.6652 208.762 43.4403 209.025 43.1568L209.704 43.8187C209.369 44.1939 208.953 44.4875 208.487 44.6769C207.985 44.8735 207.45 44.9725 206.911 44.9685C206.22 44.9779 205.538 44.8099 204.931 44.4805Z" fill="#FDC72F"/>
<path d="M219.142 43.9754V44.8729H213.824V37.5811H218.996V38.4953H214.868V40.739H218.547V41.6308H214.868V43.9754H219.142Z" fill="#FDC72F"/>
<path d="M223.996 44.7102C223.551 44.5776 223.14 44.352 222.79 44.0483L223.177 43.2294C223.49 43.5024 223.854 43.7102 224.248 43.8408C224.68 43.9968 225.135 44.0766 225.594 44.0764C226.067 44.1102 226.54 44.0028 226.952 43.7679C227.092 43.6824 227.208 43.562 227.287 43.4184C227.367 43.2749 227.408 43.1131 227.406 42.9489C227.41 42.8346 227.39 42.7207 227.348 42.6145C227.305 42.5082 227.241 42.412 227.159 42.3319C226.986 42.1695 226.779 42.0469 226.554 41.973C226.218 41.862 225.878 41.7683 225.533 41.6925C225.08 41.5876 224.634 41.4546 224.198 41.2943C223.863 41.1642 223.564 40.9543 223.328 40.6829C223.073 40.3667 222.943 39.9671 222.964 39.561C222.961 39.1851 223.068 38.8166 223.272 38.5009C223.506 38.1655 223.831 37.9046 224.209 37.7493C224.704 37.5442 225.238 37.4467 225.774 37.4632C226.204 37.4628 226.632 37.5194 227.047 37.6315C227.433 37.7293 227.799 37.8924 228.13 38.1139L227.782 38.9496C227.475 38.7571 227.143 38.608 226.795 38.5065C226.463 38.4081 226.12 38.3571 225.774 38.3551C225.306 38.3212 224.839 38.435 224.439 38.6804C224.301 38.7716 224.187 38.8957 224.109 39.0416C224.031 39.1875 223.99 39.3506 223.99 39.5162C223.986 39.6302 224.006 39.7438 224.05 39.8493C224.093 39.9548 224.159 40.0497 224.243 40.1276C224.423 40.2919 224.635 40.4178 224.865 40.4978C225.197 40.6071 225.534 40.6989 225.875 40.7726C226.326 40.8774 226.77 41.0104 227.204 41.1709C227.536 41.3026 227.831 41.51 228.068 41.7766C228.328 42.0907 228.458 42.4918 228.433 42.8985C228.435 43.2733 228.325 43.6404 228.119 43.953C227.883 44.2932 227.551 44.555 227.165 44.7046C226.666 44.9046 226.132 45 225.594 44.985C225.05 44.982 224.51 44.8891 223.996 44.7102Z" fill="#FDC72F"/>
</svg>
