<svg width="220" height="220" viewBox="0 0 220 220" fill="none" xmlns="http://www.w3.org/2000/svg">
<circle cx="110" cy="110" r="110" fill="white"/>
<circle cx="110" cy="110" r="92" fill="#00A5E4"/>
<path d="M107.434 111.982C113.095 114.184 115.809 108.382 115.809 108.382C103.894 92.546 108.992 62.1299 109.425 59.777C109.917 57.2633 110.279 53 110.279 53C109.28 53.4904 108.402 54.1952 107.706 55.0643C107.011 55.9333 106.516 56.9451 106.257 58.0275C105.181 62.3209 103.824 70.6564 104.99 82.8731C104.99 82.8731 102.899 68.7259 104.357 56.8309C102.855 58.14 101.656 59.7611 100.845 61.5811C100.034 63.4011 99.6303 65.3762 99.6613 67.3685C99.6613 73.0797 100.255 81.0633 102.959 86.694C102.959 86.694 98.4145 79.1729 97.771 64.3218C95.9607 67.1064 95.2444 70.4622 95.76 73.7433C96.5242 78.8713 98.0927 86.2214 101.25 91.8421C101.25 91.8421 95.5187 82.29 93.3669 72.6171V72.6674C91.9347 76.0688 91.8129 79.88 93.025 83.3658C94.0976 86.6502 95.3909 89.8583 96.8962 92.9683C94.1595 89.6324 91.8679 85.955 90.0789 82.0285C89.2411 85.094 89.5301 88.3582 90.8934 91.2288C92.6803 95.1795 95.1593 98.7788 98.2134 101.857C94.4372 98.6483 90.9421 95.123 87.7663 91.3193C87.5115 92.7757 87.6046 94.2718 88.038 95.6854C88.4713 97.0991 89.2327 98.3903 90.2599 99.4537C95.0347 104.517 100.677 108.686 106.921 111.761L107.434 111.982Z" fill="white"/>
<path d="M135.777 107.998C132.972 103.503 128.156 100.899 122.193 104.529C116.231 108.159 114.813 117.6 105.924 113.488C97.0358 109.375 83.4215 100.255 73.4671 79.2608C64.7998 60.9609 67.3437 57.693 64.6489 57.2808C64.2769 57.2808 63.7742 57.5724 63.1809 58.2863C61.629 60.1595 60.852 62.5553 61.0091 64.9828C61.3006 70.4125 63.8647 81.7846 77.4187 98.164C77.4187 98.164 67.9268 94.2326 57.7211 70.6739L57.5502 70.2918C57.4195 70.7041 57.2988 71.1264 57.1681 71.5487C56.7007 73.0888 56.7752 74.7425 57.3792 76.2343C59.6516 81.855 66.4287 96.4648 78.0823 105.936C78.0823 105.936 69.2239 104.74 55.137 80.0451C55.0767 80.3869 55.0163 80.7389 54.9661 81.0506C54.6167 83.1614 55.0074 85.3282 56.0721 87.1841C59.7522 93.6896 67.6755 105.685 79.0375 112.321C79.0375 112.321 69.7166 111.849 54.0008 90.7636V91.6887C53.9731 93.9304 54.6794 96.1197 56.0118 97.9227C60.1946 103.674 68.8821 113.87 80.1436 117.53C80.1436 117.53 73.7989 120.416 54.6443 101.502C54.6443 101.894 54.7549 102.276 54.8152 102.659C55.5291 107.545 59.9734 112.854 74.3318 119.983C74.3318 119.983 67.3638 119.46 57.4195 112.613C58.3664 115.095 60.1426 117.173 62.4469 118.495C70.0585 123 75.5686 125.011 85.5531 126.398C85.5531 126.398 77.3986 127.987 62.1553 122.024C63.538 124.059 65.4995 125.632 67.7861 126.539C75.4881 129.555 79.5503 130.561 90.7716 129.636C90.7716 129.636 83.5924 132.652 69.2843 130.139L69.5155 130.34C71.5672 132.14 74.1225 133.267 76.8355 133.567C81.1792 134.05 87.3831 134.442 91.3246 133.386C91.3246 133.386 85.8648 135.488 76.2423 135.236C77.0236 136.067 77.9838 136.709 79.05 137.113C80.1162 137.517 81.2604 137.673 82.3959 137.569C85.5254 137.489 88.6414 137.129 91.7067 136.493C88.5092 138.504 81.5211 138.896 81.5211 138.896L82.4662 141.068C81.511 141.33 80.5156 141.571 79.4498 141.792C70.4506 143.693 62.7687 147.916 59.4505 151.465C59.7985 151.909 60.2762 152.232 60.817 152.391C61.3579 152.549 61.9347 152.535 62.467 152.35L75.287 147.976C75.287 147.976 67.3135 152.219 63.5127 156.241C64.1632 156.954 65.0481 157.409 66.0061 157.523C66.964 157.638 67.9312 157.404 68.7312 156.865L76.554 151.536L68.6508 161.59C68.9677 161.893 69.3414 162.129 69.7504 162.286C70.1593 162.442 70.5953 162.516 71.0331 162.503C71.4708 162.49 71.9016 162.39 72.3004 162.209C72.6993 162.029 73.0582 161.77 73.3565 161.45L80.5458 153.677L74.6134 166.035C75.3886 166.367 76.2582 166.405 77.0595 166.142C77.8608 165.879 78.539 165.333 78.9671 164.607L83.4617 157.126L80.9278 167.623C81.8591 167.725 82.7967 167.498 83.5787 166.982C84.3607 166.467 84.9381 165.694 85.2112 164.798L87.4133 157.568L88.1272 167.724C88.7531 167.677 89.3362 167.389 89.753 166.92C90.1697 166.45 90.3872 165.837 90.3594 165.21C90.2085 161.027 90.661 152.39 96.7643 150.429C104.899 147.825 114.773 151.143 126.456 141.38C138.14 131.617 134.913 121.401 135.697 119.259C136.287 117.924 137.226 116.772 138.415 115.925C139.604 115.077 140.999 114.565 142.454 114.443C142.454 114.443 137.557 110.853 135.777 107.998Z" fill="white"/>
<path d="M157.783 90.2036C157.796 89.9963 157.83 89.7908 157.883 89.5902C157.883 89.4495 157.984 89.3288 158.155 89.3489C158.714 89.3947 159.275 89.3032 159.79 89.0824C160.305 88.8615 160.759 88.5181 161.111 88.082C161.489 87.6956 161.826 87.271 162.116 86.8151C162.348 86.5436 162.468 86.2017 162.669 85.9202C163.481 84.2548 163.858 82.4112 163.765 80.5609C163.788 80.4375 163.768 80.31 163.71 80.1989C163.652 80.0878 163.558 79.9993 163.444 79.9476C163.334 79.9093 163.215 79.9093 163.105 79.9477C162.996 79.986 162.902 80.0604 162.84 80.1587C162.455 80.5743 162.027 80.9484 161.563 81.2748C160.096 82.2844 158.953 83.6994 158.276 85.3471C158.276 85.3471 158.205 85.4275 158.135 85.518C157.98 84.9654 157.876 84.4001 157.823 83.8288C157.823 83.5673 157.823 83.2959 157.743 83.0344C157.617 82.6531 157.595 82.2451 157.68 81.8526C157.765 81.4602 157.953 81.0975 158.225 80.8022C159.06 79.9174 158.919 78.6304 158.637 77.4741C158.339 76.3102 157.801 75.2213 157.059 74.2766C155.975 72.8759 154.99 71.401 154.113 69.8625C154.012 69.6916 153.932 69.4201 153.67 69.5005C153.409 69.581 153.54 69.8524 153.57 70.0435C153.659 70.5705 153.592 71.112 153.379 71.602C152.956 72.6075 152.675 73.7336 152.373 74.7995C151.549 77.3031 153.781 80.9631 156.395 81.3553C156.489 81.3535 156.581 81.3714 156.667 81.4078C156.753 81.4442 156.83 81.4984 156.894 81.5667C156.957 81.635 157.006 81.716 157.036 81.8043C157.066 81.8926 157.077 81.9863 157.069 82.0792C157.149 83.2154 157.28 84.3516 157.391 85.4878C157.391 85.7291 157.391 85.9705 157.391 86.1816C157.37 86.1944 157.348 86.203 157.324 86.2069C157.3 86.2108 157.276 86.2099 157.252 86.2043C157.229 86.1986 157.207 86.1884 157.187 86.1742C157.168 86.1599 157.152 86.1419 157.139 86.1213C156.078 84.7945 154.744 83.711 153.228 82.9439C152.458 82.5995 151.772 82.0917 151.217 81.4558C151.076 81.2547 150.845 81.0737 150.583 81.2547C150.322 81.4357 150.443 81.677 150.583 81.9083C151.003 82.9785 151.369 84.0691 151.679 85.1761C152.283 86.8245 153.297 88.2918 154.626 89.4394C155.158 89.9103 155.791 90.2541 156.476 90.4449C156.747 90.5052 156.948 90.5857 156.878 90.9275C156.388 93.6477 155.458 96.2697 154.123 98.6899C154.032 98.8408 153.962 99.1022 153.741 99.0318C153.52 98.9614 153.59 98.7503 153.56 98.5793C153.488 98.1372 153.475 97.6877 153.52 97.242C153.61 96.1388 153.479 95.0285 153.134 93.9767C152.788 92.925 152.236 91.9532 151.509 91.1186C151.219 90.6957 150.882 90.3076 150.503 89.9623C150.302 89.8014 150.081 89.6405 149.829 89.7813C149.729 89.8556 149.658 89.9627 149.629 90.0839C149.599 90.2052 149.613 90.333 149.668 90.4449C149.88 91.1637 149.88 91.9281 149.668 92.6469C149.449 93.7507 149.466 94.8885 149.719 95.9852C150.024 97.1322 150.695 98.1486 151.629 98.881C151.998 99.229 152.334 99.6093 152.635 100.017C152.686 100.061 152.726 100.115 152.755 100.175C152.783 100.236 152.797 100.302 152.797 100.369C152.797 100.436 152.783 100.502 152.755 100.563C152.726 100.624 152.686 100.678 152.635 100.721C152.343 100.993 152.062 101.274 151.78 101.556C151.659 101.676 151.478 101.747 151.408 101.918C151.086 102.239 150.744 102.541 150.403 102.853C150.312 102.943 150.232 103.094 150.071 103.034C149.91 102.973 149.94 102.792 149.93 102.642C149.93 101.978 149.93 101.324 149.799 100.631C149.6 99.202 148.956 97.8724 147.959 96.8298C146.6 95.6765 144.952 94.9153 143.193 94.6277C143.022 94.6277 142.69 94.4166 142.791 94.8892C143.089 96.8036 143.519 98.6951 144.078 100.55C144.298 101.343 144.694 102.076 145.235 102.695C145.776 103.315 146.449 103.805 147.205 104.13H147.306C148.371 104.673 148.371 104.733 147.547 105.598C146.524 106.507 145.563 107.485 144.671 108.524C144.45 108.815 144.289 108.805 144.199 108.423C143.963 107.613 143.625 106.835 143.193 106.11C142.682 105.122 142.001 104.23 141.182 103.476C140.216 102.697 139.416 101.733 138.829 100.641C138.801 100.548 138.738 100.47 138.654 100.423C138.57 100.376 138.47 100.364 138.377 100.389C138.146 100.45 138.115 100.661 138.156 100.852C138.311 101.981 138.372 103.121 138.337 104.26C138.393 105.549 138.734 106.809 139.333 107.951C139.933 109.093 140.777 110.088 141.806 110.866C142.811 111.671 142.811 111.661 142.278 112.877C141.692 114.664 141.274 116.502 141.031 118.367C140.719 120.926 140.962 123.523 141.745 125.979C141.916 126.572 142.308 126.864 142.751 126.763C143.193 126.663 143.475 126.21 143.344 125.577C143.213 124.943 143.072 124.471 142.912 123.928C141.865 120.111 142.159 116.051 143.746 112.425C143.867 112.133 144.048 112.073 144.349 112.023C145.64 111.961 146.932 112.134 148.16 112.536C149.956 112.966 151.794 113.202 153.64 113.239C154.654 113.184 155.625 112.811 156.415 112.174C157.514 111.265 158.524 110.255 159.432 109.157C159.503 109.092 159.549 109.005 159.564 108.91C159.579 108.815 159.56 108.718 159.512 108.634C159.465 108.538 159.381 108.464 159.28 108.428C159.178 108.393 159.067 108.398 158.969 108.443C157.381 109.077 155.772 108.624 154.173 108.514C152.268 108.25 150.331 108.325 148.452 108.735C147.595 108.974 146.768 109.311 145.988 109.74L144.902 110.323C145.115 109.726 145.458 109.183 145.908 108.735C147.104 107.518 148.331 106.312 149.568 105.135C149.794 104.971 150.055 104.861 150.33 104.812C150.605 104.763 150.888 104.778 151.157 104.854C152.162 104.984 153.057 105.175 154.012 105.336C154.515 105.336 155.018 105.457 155.5 105.487C156.796 105.555 158.091 105.339 159.295 104.855C160.498 104.37 161.581 103.629 162.468 102.682C162.735 102.368 162.974 102.032 163.182 101.676C163.412 101.426 163.657 101.191 163.916 100.972C163.997 100.651 163.816 100.51 163.544 100.47L161.071 100.158C160.042 100.032 159.002 100.032 157.974 100.158C156.762 100.336 155.578 100.674 154.455 101.163C154.113 101.324 153.761 101.465 153.449 101.646C153.339 101.706 153.198 101.827 153.087 101.646C152.977 101.465 153.158 101.435 153.238 101.344C153.323 101.246 153.414 101.152 153.509 101.063C154.601 99.8507 155.439 98.4318 155.973 96.8901C156.043 96.6488 156.134 96.4276 156.214 96.1963C156.335 95.6332 156.687 95.8645 156.999 95.955C158.012 96.1502 159.056 96.1006 160.046 95.8103C161.036 95.52 161.943 94.9973 162.69 94.2859C163.762 93.1569 164.657 91.872 165.344 90.4751C165.545 90.1533 165.726 89.8215 165.907 89.4696C165.968 89.3959 166.001 89.3035 166.001 89.2081C166.001 89.1128 165.968 89.0204 165.907 88.9467C165.839 88.8912 165.754 88.8609 165.666 88.8609C165.578 88.8609 165.493 88.8912 165.425 88.9467C164.759 89.276 164.047 89.5031 163.313 89.6204C161.212 90.0271 159.278 91.0449 157.753 92.5464C157.722 92.605 157.673 92.6522 157.613 92.6812C157.553 92.7101 157.486 92.7192 157.421 92.7073L157.722 91.1085C157.763 90.8086 157.783 90.5062 157.783 90.2036Z" fill="white"/>
</svg>
