<svg width="229" height="64" viewBox="0 0 229 64" fill="none" xmlns="http://www.w3.org/2000/svg">
<path d="M29.808 32.903C32.9659 34.1314 34.4804 30.895 34.4804 30.895C27.8336 22.0606 30.6774 5.09307 30.9186 3.78054C31.1935 2.37826 31.3954 0 31.3954 0C30.8381 0.273547 30.348 0.666751 29.9601 1.15155C29.5723 1.63634 29.2963 2.20077 29.1517 2.80455C28.5516 5.19964 27.7943 9.84959 28.445 16.6647C28.445 16.6647 27.2783 8.77264 28.0916 2.13707C27.2537 2.86734 26.5851 3.77168 26.1327 4.78696C25.6803 5.80225 25.4549 6.90403 25.4722 8.01542C25.4722 11.2014 25.8031 15.655 27.312 18.7961C27.312 18.7961 24.7766 14.6005 24.4177 6.31586C23.4078 7.86923 23.0082 9.74126 23.2958 11.5716C23.7221 14.4322 24.5971 18.5325 26.3584 21.668C26.3584 21.668 23.1612 16.3393 21.9609 10.9434V10.9714C21.1619 12.8688 21.094 14.9949 21.7702 16.9395C22.3685 18.7717 23.09 20.5613 23.9297 22.2962C22.403 20.4353 21.1246 18.3839 20.1267 16.1935C19.6593 17.9035 19.8205 19.7245 20.581 21.3258C21.5779 23.5297 22.9608 25.5376 24.6645 27.2547C22.5579 25.4648 20.6082 23.4982 18.8366 21.3763C18.6945 22.1888 18.7464 23.0234 18.9881 23.812C19.2299 24.6006 19.6546 25.3208 20.2276 25.9141C22.8913 28.7389 26.039 31.064 29.5219 32.7796L29.808 32.903Z" fill="#00A5E4"/>
<path d="M45.6193 30.6819C44.0544 28.1746 41.3676 26.7219 38.0414 28.7468C34.7152 30.7716 33.9243 36.0386 28.9659 33.7445C24.0074 31.4503 16.4127 26.3629 10.8597 14.6511C6.02462 4.44249 7.44372 2.61953 5.94048 2.38956C5.73294 2.38956 5.45249 2.55222 5.12155 2.95047C4.25581 3.99547 3.82237 5.33193 3.90998 6.68613C4.07265 9.71505 5.50297 16.059 13.064 25.1962C13.064 25.1962 7.76905 23.003 2.07581 9.86089L1.98045 9.64774C1.90753 9.87772 1.84022 10.1133 1.76731 10.3489C1.50657 11.208 1.54814 12.1305 1.8851 12.9627C3.15276 16.0982 6.93329 24.2483 13.4342 29.532C13.4342 29.532 8.49263 28.8645 0.634266 15.0886C0.600611 15.2793 0.566956 15.4756 0.538911 15.6495C0.344024 16.827 0.561989 18.0357 1.15591 19.071C3.20885 22.7001 7.62882 29.3918 13.9671 33.0938C13.9671 33.0938 8.76747 32.8302 0.000436344 21.0679V21.5839C-0.0149896 22.8345 0.378974 24.0558 1.12226 25.0616C3.45565 28.27 8.30192 33.9576 14.5841 35.9993C14.5841 35.9993 11.0448 37.6091 0.359419 27.0584C0.359419 27.2772 0.421119 27.4903 0.454774 27.7035C0.853021 30.4295 3.33225 33.3911 11.3421 37.368C11.3421 37.368 7.45494 37.0763 1.90753 33.2565C2.43581 34.6411 3.42666 35.8004 4.71209 36.5378C8.95818 39.0507 12.032 40.1725 17.6018 40.9466C17.6018 40.9466 13.0528 41.8328 4.54942 38.5066C5.32074 39.6416 6.41499 40.519 7.69052 41.0251C11.9871 42.7078 14.2532 43.2687 20.5129 42.7527C20.5129 42.7527 16.508 44.4354 8.52628 43.0332L8.65529 43.1453C9.79984 44.1497 11.2253 44.7782 12.7387 44.9459C15.1619 45.2151 18.6227 45.4338 20.8214 44.8449C20.8214 44.8449 17.7757 46.0172 12.4078 45.877C12.8437 46.3402 13.3793 46.6981 13.9741 46.9236C14.5688 47.1491 15.2071 47.2362 15.8406 47.1783C17.5863 47.1336 19.3246 46.9328 21.0346 46.5781C19.2509 47.6999 15.3526 47.9187 15.3526 47.9187L15.8798 49.1303C15.347 49.2761 14.7917 49.4107 14.1971 49.5341C9.17694 50.5942 4.89158 52.9501 3.04057 54.9301C3.23467 55.1774 3.50118 55.3579 3.80287 55.4464C4.10456 55.5349 4.42636 55.527 4.72331 55.4237L11.8749 52.9837C11.8749 52.9837 7.4269 55.3508 5.30665 57.5944C5.66951 57.9919 6.16316 58.2457 6.69756 58.3095C7.23196 58.3734 7.7715 58.243 8.21778 57.9422L12.5817 54.9693L8.17291 60.5784C8.34968 60.7471 8.55818 60.8789 8.78631 60.9663C9.01444 61.0538 9.25765 61.095 9.50185 61.0877C9.74604 61.0804 9.98636 61.0247 10.2089 60.9238C10.4313 60.8229 10.6316 60.6788 10.798 60.4999L14.8085 56.1641L11.4991 63.0577C11.9316 63.2428 12.4167 63.2641 12.8637 63.1175C13.3107 62.9709 13.689 62.6665 13.9279 62.2612L16.4351 58.088L15.0216 63.9439C15.5411 64.0006 16.0641 63.8741 16.5004 63.5864C16.9366 63.2986 17.2587 62.8676 17.4111 62.3678L18.6395 58.3348L19.0378 64C19.3869 63.9741 19.7122 63.8132 19.9447 63.5514C20.1772 63.2896 20.2985 62.9475 20.283 62.5977C20.1988 60.2643 20.4512 55.4461 23.856 54.3523C28.3937 52.8996 33.9019 54.7506 40.4197 49.3041C46.9375 43.8577 45.1369 38.1588 45.5744 36.9641C45.9038 36.2192 46.4275 35.5767 47.0908 35.104C47.754 34.6312 48.5322 34.3457 49.3438 34.2773C49.3438 34.2773 46.6121 32.2749 45.6193 30.6819Z" fill="#00A5E4"/>
<path d="M57.8944 20.7537C57.9016 20.6381 57.9204 20.5235 57.9504 20.4116C57.9504 20.333 58.0065 20.2657 58.1019 20.2769C58.4136 20.3025 58.7267 20.2514 59.0141 20.1282C59.3016 20.0051 59.5545 19.8135 59.751 19.5702C59.9619 19.3546 60.1499 19.1178 60.3119 18.8634C60.4409 18.712 60.5082 18.5213 60.6204 18.3642C61.0731 17.4352 61.2835 16.4067 61.2318 15.3746C61.2443 15.3057 61.2334 15.2346 61.2009 15.1726C61.1683 15.1106 61.1161 15.0613 61.0523 15.0324C60.9911 15.011 60.9246 15.0111 60.8634 15.0325C60.8023 15.0539 60.7502 15.0954 60.7157 15.1502C60.5007 15.382 60.2619 15.5907 60.0034 15.7728C59.1845 16.336 58.5472 17.1253 58.1692 18.0445C58.1692 18.0445 58.1299 18.0894 58.0907 18.1399C58.0045 17.8316 57.9463 17.5162 57.9168 17.1975C57.9168 17.0517 57.9168 16.9002 57.8719 16.7544C57.8017 16.5417 57.7897 16.3141 57.837 16.0951C57.8843 15.8762 57.9894 15.6739 58.1412 15.5092C58.6067 15.0156 58.5282 14.2976 58.3711 13.6526C58.2045 13.0033 57.9046 12.3959 57.4905 11.8689C56.8858 11.0875 56.3366 10.2647 55.847 9.40648C55.7909 9.31113 55.7461 9.15968 55.6002 9.20455C55.4544 9.24943 55.5273 9.40087 55.5441 9.50744C55.5937 9.80145 55.5567 10.1035 55.4376 10.3769C55.202 10.9378 55.0449 11.566 54.8767 12.1606C54.4167 13.5572 55.6619 15.5989 57.1203 15.8177C57.1724 15.8167 57.224 15.8267 57.272 15.847C57.3199 15.8673 57.363 15.8975 57.3985 15.9356C57.4339 15.9737 57.461 16.0189 57.4778 16.0682C57.4946 16.1174 57.5009 16.1697 57.4961 16.2215C57.541 16.8554 57.6139 17.4892 57.6756 18.123C57.6756 18.2577 57.6756 18.3923 57.6756 18.5101C57.6642 18.5172 57.6515 18.522 57.6383 18.5242C57.625 18.5263 57.6115 18.5258 57.5984 18.5227C57.5854 18.5196 57.5731 18.5138 57.5622 18.5059C57.5514 18.498 57.5423 18.4879 57.5354 18.4764C56.9432 17.7363 56.1992 17.1319 55.3534 16.7039C54.9238 16.5118 54.541 16.2285 54.2316 15.8738C54.1531 15.7616 54.0241 15.6606 53.8782 15.7616C53.7324 15.8626 53.7997 15.9972 53.8782 16.1262C54.1125 16.7232 54.3166 17.3316 54.4896 17.9492C54.8264 18.8687 55.392 19.6872 56.1331 20.3274C56.4302 20.5901 56.7831 20.7819 57.1652 20.8883C57.3166 20.922 57.4288 20.9669 57.3895 21.1576C57.1164 22.675 56.5972 24.1377 55.8526 25.4878C55.8022 25.5719 55.7629 25.7178 55.6395 25.6785C55.5161 25.6392 55.5554 25.5215 55.5385 25.4261C55.4988 25.1794 55.4912 24.9287 55.5161 24.6801C55.5668 24.0646 55.4936 23.4453 55.301 22.8586C55.1083 22.2718 54.8 21.7297 54.3943 21.2641C54.2328 21.0282 54.0446 20.8118 53.8334 20.6191C53.7212 20.5293 53.5978 20.4396 53.4576 20.5181C53.4016 20.5596 53.362 20.6193 53.3456 20.687C53.3292 20.7546 53.3371 20.8259 53.3678 20.8883C53.4858 21.2893 53.4858 21.7158 53.3678 22.1167C53.2453 22.7325 53.2549 23.3672 53.3959 23.9789C53.5664 24.6188 53.9405 25.1858 54.4616 25.5944C54.667 25.7885 54.8548 26.0007 55.0225 26.2282C55.0509 26.2524 55.0737 26.2825 55.0893 26.3164C55.105 26.3503 55.1131 26.3872 55.1131 26.4245C55.1131 26.4618 55.105 26.4987 55.0893 26.5326C55.0737 26.5665 55.0509 26.5966 55.0225 26.6208C54.8598 26.7723 54.7028 26.9293 54.5457 27.0864C54.4784 27.1537 54.3774 27.193 54.3382 27.2883C54.1587 27.4678 53.968 27.6361 53.7773 27.81C53.7268 27.8604 53.6819 27.9446 53.5922 27.9109C53.5024 27.8773 53.5193 27.7763 53.5136 27.6922C53.5136 27.322 53.5136 26.9574 53.4407 26.5704C53.3294 25.7735 52.9703 25.0317 52.4143 24.4501C51.656 23.8068 50.7369 23.3821 49.7555 23.2217C49.6602 23.2217 49.4751 23.1039 49.5312 23.3676C49.6972 24.4355 49.9371 25.4907 50.2491 26.5255C50.3721 26.9676 50.5926 27.3765 50.8945 27.7221C51.1964 28.0677 51.572 28.3411 51.9936 28.5223H52.0497C52.6442 28.8252 52.6442 28.8589 52.1843 29.3413C51.6134 29.8486 51.0774 30.3939 50.5801 30.9735C50.4567 31.1362 50.3669 31.1306 50.3165 30.9174C50.1851 30.4653 49.9966 30.0317 49.7555 29.6273C49.4703 29.0757 49.0906 28.5783 48.6337 28.1577C48.095 27.7234 47.6487 27.1856 47.3212 26.576C47.3056 26.5244 47.2705 26.4809 47.2234 26.4548C47.1763 26.4286 47.1208 26.4218 47.0688 26.4357C46.9398 26.4694 46.9229 26.5872 46.9454 26.6938C47.0322 27.3236 47.066 27.9597 47.0463 28.5952C47.078 29.314 47.2678 30.017 47.6023 30.654C47.9368 31.2909 48.4077 31.8463 48.9815 32.2804C49.5424 32.7292 49.5424 32.7235 49.2451 33.4022C48.9179 34.3991 48.685 35.4244 48.5496 36.4648C48.3753 37.8924 48.5112 39.3407 48.9478 40.7109C49.0432 41.0419 49.2619 41.2045 49.5087 41.1484C49.7555 41.0923 49.9126 40.8399 49.8397 40.4866C49.7668 40.1332 49.6882 39.8696 49.5985 39.5667C49.0144 37.4375 49.1788 35.1724 50.064 33.1498C50.1314 32.9872 50.2323 32.9535 50.4006 32.9255C51.1207 32.8908 51.8411 32.9877 52.5264 33.2115C53.5284 33.4518 54.5533 33.5834 55.5834 33.6042C56.1491 33.5734 56.6907 33.3654 57.1315 33.0096C57.7442 32.503 58.3077 31.9396 58.8142 31.3269C58.8538 31.2906 58.8799 31.242 58.888 31.1889C58.8962 31.1359 58.886 31.0817 58.8591 31.0352C58.8325 30.9814 58.7859 30.9402 58.7294 30.9203C58.6728 30.9004 58.6106 30.9034 58.5562 30.9286C57.67 31.282 56.7725 31.0296 55.8807 30.9679C54.8179 30.8209 53.7374 30.8626 52.6891 31.0913C52.211 31.2247 51.7498 31.4129 51.3149 31.6522L50.7091 31.9775C50.8276 31.644 51.0193 31.3412 51.27 31.0913C51.9375 30.4126 52.6218 29.7395 53.3117 29.0832C53.438 28.9918 53.5833 28.9302 53.7368 28.903C53.8903 28.8758 54.048 28.8837 54.198 28.9262C54.7589 28.9991 55.2581 29.1057 55.7909 29.1954C56.0714 29.1954 56.3519 29.2627 56.6211 29.2796C57.3439 29.3175 58.0662 29.1971 58.7376 28.9268C59.4091 28.6565 60.0133 28.2428 60.5082 27.7146C60.6571 27.5397 60.7904 27.352 60.9064 27.1537C61.0345 27.0143 61.1713 26.8832 61.3159 26.7611C61.3608 26.5816 61.2598 26.503 61.1084 26.4806L59.7285 26.3067C59.1548 26.2366 58.5747 26.2366 58.0009 26.3067C57.3247 26.4063 56.6645 26.5949 56.0377 26.8676C55.847 26.9574 55.6507 27.0359 55.4768 27.1369C55.4151 27.1705 55.3366 27.2378 55.2749 27.1369C55.2132 27.0359 55.3142 27.0191 55.359 26.9686C55.4066 26.9135 55.4572 26.8611 55.5105 26.8115C56.1196 26.1353 56.5869 25.3438 56.8847 24.4838C56.924 24.3491 56.9745 24.2257 57.0193 24.0967C57.0866 23.7826 57.283 23.9116 57.4568 23.9621C58.0219 24.071 58.6049 24.0434 59.1571 23.8814C59.7093 23.7194 60.2149 23.4279 60.6316 23.031C61.2297 22.4012 61.7289 21.6844 62.1124 20.9052C62.2246 20.7257 62.3256 20.5406 62.4265 20.3442C62.4602 20.3031 62.4787 20.2516 62.4787 20.1984C62.4787 20.1452 62.4602 20.0937 62.4265 20.0526C62.3885 20.0216 62.3409 20.0047 62.2919 20.0047C62.2429 20.0047 62.1953 20.0216 62.1573 20.0526C61.7857 20.2363 61.3886 20.3629 60.9794 20.4284C59.8073 20.6552 58.7282 21.223 57.8775 22.0606C57.8602 22.0933 57.833 22.1197 57.7997 22.1358C57.7664 22.152 57.7288 22.1571 57.6924 22.1504L57.8607 21.2585C57.8833 21.0912 57.8945 20.9225 57.8944 20.7537Z" fill="#FDC72F"/>
<path d="M84.5643 19.3907V32.9255H81.4344V27.3781H75.2644V32.9255H72.1289V19.3907H75.2644V24.725H81.4344V19.3907H84.5643Z" fill="#00A5E4"/>
<path d="M90.5337 32.2523C89.4351 31.6714 88.5187 30.7978 87.8862 29.7282C87.2576 28.6372 86.9268 27.4002 86.9268 26.1412C86.9268 24.8821 87.2576 23.6451 87.8862 22.5541C88.5212 21.4907 89.4373 20.6231 90.5337 20.0469C91.7109 19.4514 93.0117 19.1412 94.331 19.1412C95.6503 19.1412 96.9511 19.4514 98.1284 20.0469C99.2209 20.6285 100.136 21.4948 100.776 22.5541C101.408 23.644 101.741 24.8814 101.741 26.1412C101.741 27.4009 101.408 28.6383 100.776 29.7282C100.143 30.7914 99.2337 31.6636 98.1452 32.2523C96.9679 32.8477 95.6671 33.158 94.3479 33.158C93.0286 33.158 91.7278 32.8477 90.5505 32.2523H90.5337ZM96.5018 29.9413C97.1399 29.5783 97.6658 29.0465 98.0218 28.4044C98.3822 27.7114 98.5703 26.9419 98.5703 26.1608C98.5703 25.3797 98.3822 24.6101 98.0218 23.9171C97.6658 23.275 97.1399 22.7433 96.5018 22.3802C95.8361 22.0194 95.091 21.8304 94.3338 21.8304C93.5767 21.8304 92.8315 22.0194 92.1659 22.3802C91.5295 22.7437 91.0055 23.2754 90.6515 23.9171C90.2911 24.6101 90.103 25.3797 90.103 26.1608C90.103 26.9419 90.2911 27.7114 90.6515 28.4044C91.0055 29.0462 91.5295 29.5779 92.1659 29.9413C92.8315 30.3022 93.5767 30.4911 94.3338 30.4911C95.091 30.4911 95.8361 30.3022 96.5018 29.9413Z" fill="#00A5E4"/>
<path d="M113.088 19.9852C113.703 20.2795 114.25 20.7 114.692 21.2193C115.134 21.7386 115.462 22.3452 115.655 22.9995C115.847 23.6539 115.9 24.3414 115.81 25.0175C115.719 25.6935 115.487 26.343 115.13 26.9237C114.629 27.6731 113.919 28.2585 113.088 28.6064C112.097 29.0098 111.033 29.2008 109.964 29.1673H107.238V32.9254H104.102V19.3907H109.964C111.035 19.3649 112.1 19.5676 113.088 19.9852ZM111.966 26.0318C112.213 25.8188 112.408 25.5516 112.536 25.251C112.663 24.9504 112.72 24.6246 112.701 24.2986C112.72 23.9702 112.663 23.6419 112.536 23.3386C112.409 23.0353 112.214 22.7651 111.966 22.5486C111.341 22.1044 110.582 21.8903 109.818 21.9428H107.266V26.6432H109.818C110.574 26.6875 111.322 26.4718 111.938 26.0318H111.966Z" fill="#00A5E4"/>
<path d="M128.552 30.4126V32.9255H118.069V19.3907H128.3V21.9036H121.182V24.8428H127.47V27.2772H121.182V30.4126H128.552Z" fill="#00A5E4"/>
<path d="M139.252 32.258C138.164 31.6839 137.254 30.8226 136.621 29.7676C135.995 28.6678 135.665 27.4239 135.665 26.1581C135.665 24.8924 135.995 23.6485 136.621 22.5487C137.252 21.4925 138.163 20.6307 139.252 20.0582C140.411 19.4479 141.705 19.1375 143.015 19.1552C144.107 19.1402 145.189 19.3502 146.196 19.7722C147.121 20.1707 147.94 20.7818 148.585 21.5559L146.572 23.4125C146.161 22.9087 145.643 22.5042 145.054 22.2293C144.465 21.9545 143.822 21.8163 143.172 21.8251C142.389 21.8152 141.616 22.0084 140.929 22.386C140.28 22.7426 139.745 23.2754 139.386 23.9229C139.026 24.6159 138.838 25.3855 138.838 26.1666C138.838 26.9476 139.026 27.7172 139.386 28.4102C139.745 29.0577 140.28 29.5905 140.929 29.9471C141.616 30.3247 142.389 30.518 143.172 30.508C143.824 30.5161 144.468 30.3758 145.057 30.0979C145.646 29.8199 146.164 29.4116 146.572 28.9038L148.585 30.7604C147.944 31.5442 147.122 32.1603 146.19 32.5553C145.185 32.9727 144.104 33.1789 143.015 33.1611C141.705 33.1815 140.41 32.8709 139.252 32.258Z" fill="#00A5E4"/>
<path d="M153.164 32.2524C152.063 31.6724 151.145 30.7987 150.511 29.7283C149.886 28.6361 149.557 27.3996 149.557 26.1413C149.557 24.883 149.886 23.6465 150.511 22.5543C151.147 21.4901 152.065 20.6224 153.164 20.047C154.339 19.4499 155.639 19.1386 156.958 19.1386C158.277 19.1386 159.577 19.4499 160.753 20.047C161.858 20.6356 162.782 21.5136 163.427 22.5871C164.071 23.6606 164.412 24.8892 164.412 26.1413C164.412 27.3934 164.071 28.6219 163.427 29.6954C162.782 30.7689 161.858 31.647 160.753 32.2356C159.577 32.8327 158.277 33.1439 156.958 33.1439C155.639 33.1439 154.339 32.8327 153.164 32.2356V32.2524ZM159.126 29.9414C159.765 29.5798 160.292 29.0477 160.646 28.4046C161.007 27.7116 161.195 26.942 161.195 26.1609C161.195 25.3798 161.007 24.6102 160.646 23.9173C160.292 23.2741 159.765 22.742 159.126 22.3804C158.461 22.0195 157.717 21.8305 156.961 21.8305C156.205 21.8305 155.46 22.0195 154.796 22.3804C154.158 22.7434 153.632 23.2751 153.276 23.9173C152.915 24.6102 152.727 25.3798 152.727 26.1609C152.727 26.942 152.915 27.7116 153.276 28.4046C153.632 29.0467 154.158 29.5784 154.796 29.9414C155.46 30.3023 156.205 30.4913 156.961 30.4913C157.717 30.4913 158.461 30.3023 159.126 29.9414Z" fill="#00A5E4"/>
<path d="M166.734 19.3907H169.864V30.3734H176.673V32.9255H166.734V19.3907Z" fill="#00A5E4"/>
<path d="M178.412 19.3907H181.547V30.3734H188.334V32.9255H178.412V19.3907Z" fill="#00A5E4"/>
<path d="M200.578 30.4126V32.9255H190.094V19.3907H200.325V21.9036H193.207V24.8428H199.495V27.2772H193.207V30.4126H200.578Z" fill="#00A5E4"/>
<path d="M212.181 25.9477H215.042V31.439C214.274 32.0127 213.41 32.444 212.489 32.7123C211.545 33.0071 210.562 33.1583 209.573 33.161C208.253 33.181 206.95 32.8706 205.781 32.258C204.689 31.6855 203.775 30.824 203.139 29.7675C202.513 28.6677 202.183 27.4238 202.183 26.158C202.183 24.8923 202.513 23.6484 203.139 22.5486C203.777 21.4874 204.697 20.625 205.798 20.0581C206.981 19.4454 208.297 19.1351 209.629 19.1551C210.735 19.1408 211.833 19.3448 212.86 19.7553C213.797 20.135 214.631 20.7308 215.294 21.4941L213.286 23.3507C212.84 22.8614 212.296 22.4724 211.689 22.2094C211.081 21.9464 210.425 21.8154 209.763 21.825C208.96 21.8138 208.167 22.0068 207.458 22.3859C206.801 22.7333 206.257 23.2631 205.893 23.9116C205.529 24.6033 205.338 25.3734 205.338 26.1552C205.338 26.9371 205.529 27.7072 205.893 28.3989C206.257 29.0464 206.795 29.5789 207.447 29.9358C208.146 30.3136 208.93 30.5066 209.724 30.4967C210.57 30.515 211.406 30.3222 212.159 29.9358L212.181 25.9477Z" fill="#00A5E4"/>
<path d="M228.432 30.4126V32.9255H217.949V19.3907H228.18V21.9036H221.062V24.8428H227.35V27.2772H221.062V30.4126H228.432Z" fill="#00A5E4"/>
<path d="M74.0533 44.4804C73.4729 44.1686 72.9896 43.7028 72.6567 43.1342C72.3221 42.5513 72.146 41.8908 72.146 41.2187C72.146 40.5465 72.3221 39.8861 72.6567 39.3032C72.9896 38.7346 73.4729 38.2688 74.0533 37.957C74.6684 37.6265 75.3576 37.4585 76.0558 37.469C76.7485 37.4591 77.4322 37.6272 78.0414 37.957C78.6204 38.2682 79.1034 38.7318 79.4381 39.2976C79.7673 39.8843 79.9402 40.5459 79.9402 41.2187C79.9402 41.8915 79.7673 42.553 79.4381 43.1398C79.105 43.7069 78.6216 44.1708 78.0414 44.4804C77.4322 44.8102 76.7485 44.9782 76.0558 44.9684C75.3576 44.9789 74.6684 44.8109 74.0533 44.4804ZM77.5029 43.6671C77.9285 43.4313 78.2801 43.0817 78.5182 42.6574C78.7612 42.2168 78.8887 41.7219 78.8887 41.2187C78.8887 40.7155 78.7612 40.2205 78.5182 39.7799C78.2785 39.3569 77.9273 39.0077 77.5029 38.7703C77.0616 38.5221 76.562 38.3963 76.0558 38.4057C75.5443 38.397 75.0395 38.5227 74.5918 38.7703C74.1642 39.0072 73.8093 39.3563 73.5653 39.7799C73.3223 40.2205 73.1948 40.7155 73.1948 41.2187C73.1948 41.7219 73.3223 42.2168 73.5653 42.6574C73.8077 43.0823 74.163 43.4318 74.5918 43.6671C75.039 43.9163 75.5438 44.044 76.0558 44.0373C76.5625 44.0447 77.0621 43.917 77.5029 43.6671Z" fill="#FDC72F"/>
<path d="M85.2047 38.4672V41.0194H88.8786V41.9224H85.2047V44.8728H84.1558V37.581H89.333V38.4953L85.2047 38.4672Z" fill="#FDC72F"/>
<path d="M103.529 43.05H99.6303L98.8226 44.8729H97.7456L101.066 37.5811H102.104L105.436 44.8729H104.314L103.529 43.05ZM103.158 42.2142L101.577 38.6244L99.9949 42.2142H103.158Z" fill="#FDC72F"/>
<path d="M114.037 44.8729L112.461 42.6292H112.001H110.19V44.8729H109.141V37.581H112.001C112.807 37.5327 113.603 37.7756 114.245 38.2653C114.516 38.4939 114.731 38.7817 114.873 39.1066C115.015 39.4314 115.08 39.7846 115.064 40.1388C115.079 40.6517 114.932 41.1563 114.643 41.5803C114.348 41.9905 113.929 42.2952 113.448 42.4497L115.187 44.9121L114.037 44.8729ZM113.476 41.3223C113.643 41.165 113.775 40.9755 113.866 40.7652C113.956 40.555 114.003 40.3284 114.003 40.0995C114.003 39.8706 113.956 39.6441 113.866 39.4338C113.775 39.2236 113.643 39.034 113.476 38.8767C113.032 38.5689 112.496 38.4206 111.956 38.456H110.178V41.7542H111.956C112.5 41.795 113.041 41.6463 113.488 41.3335L113.476 41.3223Z" fill="#FDC72F"/>
<path d="M120.715 38.4672H118.202V37.581H124.266V38.4953H121.753V44.8728H120.715V38.4672Z" fill="#FDC72F"/>
<path d="M128.474 44.7102C128.027 44.5788 127.614 44.3531 127.262 44.0484L127.649 43.2294C127.964 43.5 128.328 43.7076 128.721 43.8408C129.152 43.9969 129.608 44.0766 130.067 44.0764C130.542 44.1103 131.016 44.003 131.43 43.7679C131.569 43.6813 131.683 43.5605 131.761 43.4171C131.84 43.2737 131.88 43.1125 131.878 42.949C131.884 42.8345 131.865 42.7201 131.822 42.6137C131.779 42.5073 131.715 42.4112 131.632 42.332C131.458 42.1695 131.252 42.047 131.026 41.973C130.691 41.8612 130.35 41.7676 130.005 41.6925C129.552 41.5869 129.107 41.4539 128.67 41.2943C128.336 41.1631 128.037 40.9534 127.801 40.6829C127.547 40.3659 127.419 39.9665 127.442 39.5611C127.436 39.1848 127.544 38.8155 127.75 38.501C127.982 38.1643 128.308 37.9029 128.687 37.7493C129.18 37.5442 129.712 37.4467 130.246 37.4633C130.678 37.4632 131.108 37.5198 131.525 37.6315C131.909 37.7304 132.273 37.8935 132.602 38.1139L132.254 38.9497C131.949 38.757 131.619 38.6079 131.273 38.5066C130.939 38.4077 130.594 38.3567 130.246 38.3551C129.778 38.3213 129.311 38.4351 128.911 38.6804C128.774 38.7719 128.661 38.8962 128.584 39.0422C128.506 39.1881 128.467 39.351 128.468 39.5162C128.464 39.6297 128.484 39.7427 128.527 39.848C128.569 39.9533 128.633 40.0486 128.715 40.1276C128.897 40.2931 129.11 40.4191 129.343 40.4978C129.675 40.6072 130.012 40.6989 130.353 40.7726C130.804 40.8782 131.248 41.0112 131.682 41.1709C132.013 41.3039 132.308 41.5111 132.546 41.7767C132.804 42.0916 132.932 42.4926 132.905 42.8985C132.91 43.2738 132.8 43.6416 132.591 43.953C132.357 44.2944 132.024 44.5566 131.637 44.7046C131.139 44.9046 130.604 45.0001 130.067 44.9851C129.524 44.982 128.986 44.8892 128.474 44.7102Z" fill="#FDC72F"/>
<path d="M147.845 44.9962L146.869 44.0258C146.366 44.4779 145.748 44.7824 145.083 44.9061C144.418 45.0298 143.732 44.9678 143.1 44.727C142.74 44.5884 142.425 44.356 142.185 44.0539C141.968 43.7688 141.852 43.4196 141.855 43.0611C141.852 42.6287 141.998 42.2085 142.27 41.872C142.657 41.4401 143.119 41.0811 143.633 40.8118C143.365 40.5573 143.136 40.2643 142.954 39.9424C142.822 39.6937 142.752 39.4164 142.752 39.1347C142.746 38.9057 142.794 38.6785 142.891 38.4711C142.989 38.2637 143.133 38.0819 143.313 37.94C143.723 37.6245 144.232 37.4654 144.749 37.4912C145.227 37.4635 145.699 37.6088 146.078 37.9007C146.242 38.0367 146.371 38.2089 146.457 38.4035C146.543 38.5982 146.582 38.8101 146.572 39.0225C146.575 39.3858 146.448 39.7382 146.213 40.0153C145.863 40.3932 145.452 40.7082 144.996 40.9464L146.807 42.747C147.023 42.3288 147.174 41.8807 147.256 41.4176L148.064 41.6812C147.953 42.2759 147.737 42.8459 147.424 43.364L148.406 44.3119L147.845 44.9962ZM146.275 43.4369L144.188 41.3671C143.795 41.5638 143.44 41.8276 143.139 42.1468C142.942 42.372 142.835 42.6612 142.836 42.9601C142.835 43.1287 142.876 43.295 142.956 43.4432C143.037 43.5913 143.154 43.7166 143.296 43.8071C143.649 44.0372 144.065 44.151 144.485 44.1324C144.815 44.1425 145.143 44.0862 145.451 43.9667C145.758 43.8472 146.038 43.667 146.275 43.4369ZM143.964 38.4728C143.873 38.5522 143.801 38.6508 143.754 38.7614C143.706 38.8721 143.684 38.9919 143.689 39.1123C143.687 39.3095 143.74 39.5035 143.84 39.6732C144 39.9289 144.188 40.1659 144.401 40.3799C144.765 40.1943 145.101 39.9583 145.4 39.6788C145.486 39.597 145.555 39.4989 145.603 39.39C145.652 39.2812 145.678 39.1639 145.68 39.045C145.681 38.9383 145.658 38.8328 145.613 38.7359C145.569 38.6389 145.503 38.553 145.422 38.484C145.217 38.3265 144.962 38.2487 144.704 38.2653C144.44 38.2451 144.178 38.3186 143.964 38.4728Z" fill="#FDC72F"/>
<path d="M158.257 44.7102C157.81 44.5763 157.395 44.3509 157.04 44.0483L157.427 43.2294C157.743 43.5012 158.109 43.7088 158.504 43.8408C158.936 43.9974 159.391 44.0771 159.85 44.0763C160.323 44.1102 160.796 44.0028 161.208 43.7678C161.348 43.6824 161.463 43.5619 161.543 43.4184C161.623 43.2748 161.664 43.1131 161.662 42.9489C161.666 42.8346 161.646 42.7207 161.603 42.6144C161.561 42.5082 161.497 42.412 161.415 42.3319C161.239 42.1702 161.031 42.0478 160.804 41.9729C160.469 41.8604 160.128 41.7668 159.783 41.6925C159.33 41.586 158.885 41.453 158.448 41.2942C158.121 41.1599 157.831 40.9504 157.601 40.6828C157.345 40.3666 157.215 39.9671 157.236 39.561C157.231 39.1847 157.338 38.8154 157.545 38.5009C157.778 38.1655 158.104 37.9046 158.482 37.7493C158.975 37.5448 159.507 37.4473 160.041 37.4632C160.473 37.4628 160.903 37.5194 161.32 37.6315C161.704 37.7281 162.069 37.8914 162.397 38.1139L162.055 38.9496C161.748 38.7571 161.415 38.6079 161.067 38.5065C160.734 38.4076 160.389 38.3566 160.041 38.355C159.576 38.3314 159.115 38.453 158.723 38.7028C158.585 38.7943 158.473 38.9186 158.395 39.0645C158.318 39.2105 158.278 39.3734 158.28 39.5386C158.275 39.6526 158.296 39.7662 158.339 39.8717C158.383 39.9772 158.449 40.0721 158.532 40.15C158.712 40.3143 158.924 40.4402 159.155 40.5202C159.486 40.6295 159.823 40.7213 160.164 40.795C160.615 40.9006 161.059 41.0336 161.494 41.1933C161.825 41.325 162.121 41.5324 162.357 41.799C162.617 42.1131 162.747 42.5142 162.722 42.9209C162.725 43.2967 162.613 43.6645 162.402 43.9754C162.17 44.3167 161.84 44.5789 161.454 44.727C160.956 44.927 160.421 45.0224 159.884 45.0074C159.329 45.0008 158.779 44.9003 158.257 44.7102Z" fill="#FDC72F"/>
<path d="M168.129 44.4803C167.553 44.1686 167.074 43.7049 166.744 43.1398C166.415 42.553 166.242 41.8914 166.242 41.2186C166.242 40.5458 166.415 39.8843 166.744 39.2975C167.076 38.7321 167.558 38.2685 168.135 37.9569C168.746 37.6271 169.432 37.4591 170.126 37.4689C170.663 37.4644 171.197 37.5634 171.697 37.7606C172.162 37.946 172.577 38.2381 172.908 38.6132L172.229 39.2639C171.967 38.9804 171.647 38.7563 171.291 38.6064C170.935 38.4564 170.551 38.3842 170.165 38.3944C169.65 38.3851 169.142 38.5108 168.69 38.759C168.26 38.9942 167.903 39.3436 167.658 39.7687C167.415 40.2093 167.288 40.7042 167.288 41.2074C167.288 41.7106 167.415 42.2056 167.658 42.6461C167.901 43.0725 168.259 43.4223 168.69 43.6558C169.141 43.9057 169.65 44.0334 170.165 44.026C170.552 44.0323 170.936 43.9572 171.291 43.8055C171.647 43.6537 171.967 43.4288 172.229 43.1454L172.908 43.8072C172.574 44.1837 172.158 44.4775 171.691 44.6654C171.189 44.8625 170.654 44.9615 170.115 44.9571C169.423 44.9709 168.739 44.8067 168.129 44.4803Z" fill="#FDC72F"/>
<path d="M177.026 37.581H178.07V44.8728H177.026V37.581Z" fill="#FDC72F"/>
<path d="M188.201 43.9754V44.8728H182.884V37.581H188.055V38.4953H183.961V40.7389H187.635V41.6308H183.961V43.9754H188.201Z" fill="#FDC72F"/>
<path d="M198.821 37.581V44.8728H197.985L193.587 39.4096V44.8728H192.539V37.581H193.397L197.794 43.0499V37.581H198.821Z" fill="#FDC72F"/>
<path d="M204.931 44.4803C204.355 44.1686 203.876 43.7049 203.545 43.1398C203.216 42.553 203.043 41.8914 203.043 41.2186C203.043 40.5458 203.216 39.8843 203.545 39.2975C203.878 38.7321 204.359 38.2685 204.936 37.9569C205.547 37.6271 206.233 37.4591 206.927 37.4689C207.465 37.4644 207.998 37.5634 208.498 37.7606C208.962 37.9475 209.377 38.2393 209.709 38.6132L209.031 39.2639C208.767 38.9818 208.445 38.7593 208.089 38.6113C207.732 38.4633 207.347 38.3932 206.961 38.4057C206.446 38.3963 205.937 38.522 205.486 38.7703C205.055 39.0054 204.698 39.3548 204.454 39.7799C204.211 40.2205 204.083 40.7155 204.083 41.2186C204.083 41.7218 204.211 42.2168 204.454 42.6574C204.697 43.0838 205.054 43.4335 205.486 43.667C205.937 43.917 206.445 44.0446 206.961 44.0372C207.348 44.0435 207.731 43.9684 208.087 43.8167C208.442 43.6649 208.762 43.44 209.025 43.1566L209.704 43.8185C209.369 44.1937 208.953 44.4873 208.487 44.6766C207.985 44.8733 207.45 44.9723 206.911 44.9683C206.22 44.9777 205.538 44.8097 204.931 44.4803Z" fill="#FDC72F"/>
<path d="M219.142 43.9754V44.8728H213.824V37.581H218.996V38.4953H214.868V40.7389H218.547V41.6308H214.868V43.9754H219.142Z" fill="#FDC72F"/>
<path d="M223.996 44.7104C223.552 44.5778 223.141 44.3521 222.79 44.0485L223.177 43.2296C223.49 43.5025 223.854 43.7104 224.248 43.841C224.68 43.997 225.136 44.0767 225.595 44.0766C226.068 44.1104 226.54 44.003 226.952 43.768C227.092 43.6826 227.208 43.5622 227.287 43.4186C227.367 43.2751 227.408 43.1133 227.406 42.9491C227.41 42.8348 227.39 42.7209 227.348 42.6147C227.305 42.5084 227.241 42.4122 227.16 42.3321C226.986 42.1697 226.779 42.0471 226.554 41.9731C226.219 41.8621 225.878 41.7685 225.533 41.6927C225.08 41.5878 224.634 41.4548 224.198 41.2944C223.863 41.1644 223.564 40.9545 223.329 40.683C223.073 40.3668 222.943 39.9673 222.964 39.5612C222.961 39.1853 223.068 38.8167 223.272 38.5011C223.506 38.1657 223.831 37.9048 224.209 37.7495C224.705 37.5444 225.238 37.4469 225.774 37.4634C226.204 37.463 226.632 37.5196 227.047 37.6317C227.433 37.7295 227.799 37.8926 228.13 38.1141L227.782 38.9498C227.475 38.7573 227.143 38.6081 226.795 38.5067C226.463 38.4083 226.12 38.3573 225.774 38.3553C225.306 38.3214 224.839 38.4352 224.439 38.6806C224.301 38.7718 224.187 38.8959 224.109 39.0418C224.031 39.1877 223.99 39.3508 223.99 39.5163C223.986 39.6304 224.007 39.744 224.05 39.8495C224.094 39.955 224.159 40.0499 224.243 40.1277C224.423 40.292 224.635 40.418 224.865 40.4979C225.197 40.6073 225.534 40.699 225.875 40.7728C226.326 40.8776 226.77 41.0106 227.204 41.171C227.536 41.3027 227.832 41.5102 228.068 41.7768C228.328 42.0909 228.458 42.492 228.433 42.8986C228.435 43.2735 228.326 43.6406 228.119 43.9531C227.883 44.2934 227.551 44.5552 227.165 44.7048C226.666 44.9047 226.132 45.0002 225.595 44.9852C225.05 44.9822 224.51 44.8893 223.996 44.7104Z" fill="#FDC72F"/>
</svg>
